<svg width="62" height="59" viewBox="0 0 62 59" fill="none" xmlns="http://www.w3.org/2000/svg">
<path d="M37.8884 0C37.5951 0 37.3422 0.171511 37.2426 0.428778C36.5107 2.05813 35.1329 5.48836 34.4224 8.91858C33.0662 3.43022 30.3618 1.37209 25.4883 1.37209C23.6584 1.37209 22.4313 1.77943 21.1047 2.10636C20.8463 2.20552 20.666 2.45474 20.666 2.74417C20.666 2.94516 20.7522 3.12472 20.8894 3.24799C23.4216 5.48834 25.4883 11.663 29.6217 11.663C31.0587 11.663 32.31 11.7622 33.7551 10.977C33.1334 13.1691 33.0662 14.9807 33.0662 17.1514C33.0662 20.4905 33.7551 23.3258 34.4439 25.3839C30.4182 25.3839 21.3551 27.4421 21.3551 32.2444H53.0439C53.0439 27.4421 44.1531 25.3839 39.2661 25.3839C37.8884 22.6397 36.6128 17.0444 36.5321 15.0932C37.9502 16.2938 39.9281 17.1514 41.3328 17.1514C46.155 17.1514 48.9106 12.3491 50.6652 11.5531C50.8535 11.4298 50.9773 11.2181 50.9773 10.9769C50.9773 10.7626 50.8804 10.5723 50.7244 10.4463C48.9106 8.91878 46.1551 8.23274 43.3994 8.23274C40.9049 8.23274 38.1413 9.24575 36.532 12.5634C36.532 6.33809 38.5772 2.25146 38.5772 0.686587C38.5772 0.308727 38.2679 0 37.8884 0ZM59.9328 31.5581C59.2708 31.5581 58.6762 31.8689 58.2967 32.3513C58.0222 32.6997 44.7773 43.907 44.7773 43.907L30.3107 41.8489C30.3107 41.8489 42.5922 38.3516 42.8402 38.2471C43.5802 37.9336 44.0888 37.2127 44.0888 36.3605C44.0888 35.2243 43.163 34.3024 42.0221 34.3024H24.7999C19.0816 34.3024 14.6388 39.8738 13.7777 41.1628C13.4118 41.7095 0 59 0 59H20.6666L23.4222 55.5698C24.4367 54.3048 25.9086 53.7073 27.5555 53.5116L44.7777 51.4535C48.1252 51.0542 48.981 50.32 50.2888 48.7093C50.2888 48.7093 61.1249 35.3555 61.4618 34.9884C61.7955 34.6266 62 34.1469 62 33.6163C62 32.4801 61.0738 31.5581 59.9328 31.5581Z" fill="#233362"/>
</svg>
