<svg width="65" height="65" viewBox="0 0 65 65" fill="none" xmlns="http://www.w3.org/2000/svg">
<g clip-path="url(#clip0_108_12)">
<path d="M4.25903 14.2213C6.62345 19.7206 10.6151 25.1601 16.2007 27.5047C16.8383 27.7703 17.5622 27.9696 18.3061 28.1356C19.7938 25.9173 21.5007 24.1173 23.4999 22.643C25.22 21.3811 27.02 20.3915 28.8729 19.6143C28.3416 19.2424 27.7837 18.9037 27.1992 18.5981C24.8746 17.3827 22.3575 16.3134 19.9067 15.1644C22.2113 15.7887 24.8547 16.0212 27.0597 16.8248C28.4346 17.3297 29.7031 18.027 30.8853 18.8572C34.4121 17.655 38.0982 17.0772 41.7776 16.6389C38.7956 11.6843 32.4328 7.70591 27.6376 5.90602C22.6298 4.02637 16.9578 3.79391 11.3854 3.21615C7.97164 2.86408 4.25896 1.58895 1.54253 0.10122C0.924855 -0.237504 0.267332 0.327036 0.479865 1.01113C1.8149 5.28164 2.49235 10.1168 4.25903 14.2213Z" fill="black"/>
<path d="M63.1373 13.5704C56.8542 16.9842 49.648 17.4026 42.588 18.2129C39.1411 18.6114 35.7272 19.1028 32.4794 20.0859C31.7753 20.2983 31.0714 20.5375 30.3806 20.8032C28.3283 21.5869 26.3491 22.6163 24.4828 23.9912C22.7294 25.2796 21.2948 26.8072 20.0861 28.4876C18.16 31.1707 16.8184 34.2591 15.7158 37.4671C13.7034 43.2917 12.7802 49.4817 12.9596 55.6386C13.0326 58.1359 13.0725 60.7327 13.6901 63.1702C13.8296 63.7082 13.9625 64.3922 14.3809 64.7907C14.9255 65.3154 15.9018 64.7774 15.6826 64.0137C14.1019 58.6273 15.0849 52.3311 17.27 47.1838C19.7805 41.266 24.6289 37.7459 30.5533 35.6008C32.1274 35.0296 33.7347 34.5314 35.3685 34.0599C35.4017 34.0467 35.4349 34.0467 35.4681 34.0467C35.7935 34.0467 35.933 34.5248 35.5943 34.6776C33.6682 35.5477 31.7554 36.4244 29.9355 37.3741C21.0225 42.0233 17.1305 52.8492 20.4712 52.8492C20.7436 52.8492 21.0623 52.7761 21.4276 52.6234C26.5815 50.4914 32.7051 50.4715 38.3704 49.4222C40.3629 49.0569 42.3023 48.5587 44.1222 47.8016C51.3483 44.7863 56.5155 38.8885 59.5905 31.7952C61.8819 26.5018 62.7718 20.252 64.5053 14.7527C64.7311 14.0487 64.233 13.4444 63.622 13.4444C63.4694 13.4376 63.3033 13.4775 63.1373 13.5704Z" fill="black"/>
</g>
<defs>
<clipPath id="clip0_108_12">
<rect width="65" height="65" fill="black"/>
</clipPath>
</defs>
</svg>
