<svg width="64" height="40" viewBox="0 0 64 40" fill="none" xmlns="http://www.w3.org/2000/svg">
<path d="M61.1445 40H2.93561C1.34199 40 0 38.6286 0 37C0 35.3714 1.34199 34 2.93561 34H61.0607C62.6543 34 63.9963 35.3714 63.9963 37C64.0801 38.6286 62.7382 40 61.1445 40Z" fill="#233362"/>
<path d="M39.5449 5.29067V19.84H37.0299V3.472C37.0299 1.57067 35.6048 0 33.9281 0H29.988C28.3114 0 26.8862 1.57067 26.8862 3.472V19.84H24.4551V5.208C12.6347 8.184 4.41916 18.6 4 31H39.5449V30.9173H60C59.5808 18.6827 51.3653 8.34933 39.5449 5.29067Z" fill="#233362"/>
</svg>
