<svg width="70" height="70" viewBox="0 0 70 70" fill="none" xmlns="http://www.w3.org/2000/svg">
<path d="M13.5484 63.2258C13.5484 60.7352 11.5229 58.7097 9.03225 58.7097C6.5416 58.7097 4.51612 60.7352 4.51612 63.2258C4.51612 65.7164 6.5416 67.7419 9.03225 67.7419C11.5229 67.7419 13.5484 65.7164 13.5484 63.2258ZM9.03225 65.4839C7.78693 65.4839 6.77418 64.4711 6.77418 63.2258C6.77418 61.9805 7.78693 60.9677 9.03225 60.9677C10.2776 60.9677 11.2903 61.9805 11.2903 63.2258C11.2903 64.4711 10.2776 65.4839 9.03225 65.4839ZM24.8387 63.2258C24.8387 60.7352 22.8132 58.7097 20.3226 58.7097C17.8319 58.7097 15.8064 60.7352 15.8064 63.2258C15.8064 65.7164 17.8319 67.7419 20.3226 67.7419C22.8132 67.7419 24.8387 65.7164 24.8387 63.2258ZM20.3226 65.4839C19.0772 65.4839 18.0645 64.4711 18.0645 63.2258C18.0645 61.9805 19.0772 60.9677 20.3226 60.9677C21.5679 60.9677 22.5806 61.9805 22.5806 63.2258C22.5806 64.4711 21.5679 65.4839 20.3226 65.4839ZM36.129 63.2258C36.129 60.7352 34.1035 58.7097 31.6129 58.7097C29.1222 58.7097 27.0968 60.7352 27.0968 63.2258C27.0968 65.7164 29.1222 67.7419 31.6129 67.7419C34.1035 67.7419 36.129 65.7164 36.129 63.2258ZM31.6129 65.4839C30.3676 65.4839 29.3548 64.4711 29.3548 63.2258C29.3548 61.9805 30.3676 60.9677 31.6129 60.9677C32.8582 60.9677 33.871 61.9805 33.871 63.2258C33.871 64.4711 32.8582 65.4839 31.6129 65.4839Z" fill="black"/>
<path d="M60.76 39.5161C60.5915 39.0438 60.3202 38.6148 59.9656 38.2602C59.611 37.9056 59.182 37.6343 58.7097 37.4658V15.7161C62.5326 15.1652 65.4839 11.8763 65.4839 7.90323C65.4839 3.54516 61.9376 0 57.5806 0C54.3832 0 51.6295 1.91258 50.3864 4.65048L10.3284 18.3287L4.74306 42.9032H3.3871C1.51968 42.9032 0 44.4229 0 46.2903V50.8065C0 52.6739 1.51968 54.1935 3.3871 54.1935H14.6774V56.4516H6.77419C3.03823 56.4516 0 59.4898 0 63.2258C0 66.9618 3.03823 70 6.77419 70H33.871C37.6069 70 40.6452 66.9618 40.6452 63.2258C40.6452 59.876 38.1985 57.094 35 56.5532V54.1935H35.3839C36.1566 54.1925 36.9197 54.0215 37.619 53.6925C38.3182 53.3636 38.9365 52.8848 39.43 52.2901C39.9235 51.6954 40.2801 50.9995 40.4745 50.2516C40.6689 49.5036 40.6963 48.7221 40.5548 47.9624L37.87 33.6463C37.7372 32.948 37.4637 32.284 37.0662 31.6948C36.6687 31.1055 36.1555 30.6032 35.5577 30.2185L53.7916 14.8355C54.6182 15.2864 55.5192 15.5848 56.4516 15.7161V37.4658C55.9793 37.6343 55.5503 37.9056 55.1957 38.2602C54.8411 38.6148 54.5698 39.0438 54.4013 39.5161H45.1613V55.3226H54.4013C54.8687 56.6334 56.1106 57.5806 57.5806 57.5806C59.0506 57.5806 60.2926 56.6334 60.76 55.3226H70V39.5161H60.76ZM57.5806 2.25806C60.6934 2.25806 63.2258 4.79048 63.2258 7.90323C63.2258 11.016 60.6934 13.5484 57.5806 13.5484C54.4679 13.5484 51.9355 11.016 51.9355 7.90323C51.9355 4.79048 54.4679 2.25806 57.5806 2.25806ZM40.2771 23.284L35.0565 19.0129L40.6452 16.0142V22.9735L40.2771 23.284ZM42.9032 14.8016L44.6769 13.8498L49.0835 15.8527L42.9032 21.0689V14.8016ZM47.18 12.5074L50.2555 10.8568C50.6448 11.8195 51.2199 12.6961 51.9479 13.4366L50.995 14.2405L47.18 12.5074ZM49.7124 8.58629L18.0645 25.5669V24.8387C18.0634 23.703 17.7766 22.5858 17.2304 21.5901C16.6843 20.5943 15.8964 19.7519 14.9394 19.1405L49.7102 7.26758C49.6907 7.47893 49.6798 7.69099 49.6774 7.90323C49.6774 8.13355 49.6921 8.36048 49.7124 8.58629ZM26.0569 29.3548L22.8482 25.5635L28.2258 22.6777V29.3548H26.0569ZM18.0645 28.1298L20.8137 26.6542L23.0989 29.3548H21.4516C20.1758 29.3548 19.0106 29.7963 18.0645 30.5132V28.1298ZM12.171 20.4118C13.195 20.6162 14.1167 21.1689 14.7794 21.9759C15.4421 22.7829 15.805 23.7945 15.8065 24.8387V42.9032H7.05984L12.171 20.4118ZM38.3871 63.2258C38.3871 65.7164 36.3616 67.7419 33.871 67.7419H6.77419C4.28355 67.7419 2.25806 65.7164 2.25806 63.2258C2.25806 60.7352 4.28355 58.7097 6.77419 58.7097H33.871C36.3616 58.7097 38.3871 60.7352 38.3871 63.2258ZM32.7419 56.4516H16.9355V54.1935H32.7419V56.4516ZM35.3839 51.9355H3.3871C2.76387 51.9355 2.25806 51.4285 2.25806 50.8065V46.2903C2.25806 45.6682 2.76387 45.1613 3.3871 45.1613H18.0645V35C18.0645 33.1326 19.5842 31.6129 21.4516 31.6129H32.7002C34.0776 31.6129 35.2585 32.5545 35.5984 33.871H22.5806C21.3353 33.871 20.3226 34.8837 20.3226 36.129V45.1613H37.7323L38.3363 48.3802C38.4168 48.8138 38.4009 49.2598 38.2898 49.6865C38.1786 50.1133 37.975 50.5104 37.6932 50.8497C37.4115 51.189 37.0586 51.4621 36.6595 51.6497C36.2604 51.8374 35.8249 51.9349 35.3839 51.9355ZM36.0387 36.129L37.3089 42.9032H22.5806V36.129H36.0387ZM32.7002 29.3548H30.4839V21.4663L32.9034 20.1679L38.5226 24.7653L33.0468 29.3853C32.9294 29.3774 32.8176 29.3548 32.7002 29.3548ZM47.4194 41.7742H54.1935V46.2903H47.4194V41.7742ZM47.4194 48.5484H54.1935V53.0645H47.4194V48.5484ZM58.7097 54.1935C58.6967 54.4843 58.572 54.7587 58.3617 54.9598C58.1514 55.161 57.8716 55.2732 57.5806 55.2732C57.2896 55.2732 57.0099 55.161 56.7996 54.9598C56.5892 54.7587 56.4646 54.4843 56.4516 54.1935V40.6452C56.4646 40.3545 56.5892 40.08 56.7996 39.8789C57.0099 39.6777 57.2896 39.5655 57.5806 39.5655C57.8716 39.5655 58.1514 39.6777 58.3617 39.8789C58.572 40.08 58.6967 40.3545 58.7097 40.6452V54.1935ZM67.7419 53.0645H60.9677V48.5484H67.7419V53.0645ZM60.9677 46.2903V41.7742H67.7419V46.2903H60.9677Z" fill="#000"/>
<path d="M57.5806 11.2903C59.4481 11.2903 60.9677 9.77064 60.9677 7.90323C60.9677 6.03581 59.4481 4.51613 57.5806 4.51613C55.7132 4.51613 54.1936 6.03581 54.1936 7.90323C54.1936 9.77064 55.7132 11.2903 57.5806 11.2903ZM57.5806 6.77419C57.8043 6.77397 58.0229 6.84009 58.209 6.96419C58.395 7.08829 58.54 7.26478 58.6257 7.47134C58.7114 7.67789 58.7339 7.90523 58.6903 8.12456C58.6467 8.3439 58.539 8.54538 58.3809 8.7035C58.2228 8.86162 58.0213 8.96928 57.802 9.01285C57.5827 9.05643 57.3553 9.03395 57.1488 8.94827C56.9422 8.86259 56.7657 8.71756 56.6416 8.53153C56.5175 8.34551 56.4514 8.12685 56.4516 7.90323C56.4516 7.28113 56.9574 6.77419 57.5806 6.77419Z" fill="black"/>
</svg>
