<svg width="8" height="5" viewBox="0 0 8 5" fill="none" xmlns="http://www.w3.org/2000/svg">
<path d="M6.94786 0.435748C7.05958 0.324029 7.19161 0.26817 7.34395 0.26817C7.4963 0.26817 7.62833 0.324029 7.74005 0.435748C7.84669 0.542388 7.90001 0.67315 7.90001 0.828033C7.90001 0.982916 7.84669 1.11368 7.74005 1.22032L4.3961 4.56426C4.28438 4.67598 4.15235 4.73184 4.00001 4.73184C3.84766 4.73184 3.71563 4.67598 3.60391 4.56426L0.259967 1.22032C0.153326 1.11368 0.100006 0.982916 0.100006 0.828033C0.100006 0.67315 0.153326 0.542388 0.259967 0.435748C0.371686 0.324029 0.503717 0.26817 0.656061 0.26817C0.808405 0.26817 0.940436 0.324029 1.05215 0.435748L4.00001 3.3836L6.94786 0.435748Z" fill="#fff"/>
</svg>
