<svg width="64" height="65" viewBox="0 0 64 65" fill="none" xmlns="http://www.w3.org/2000/svg">
<path fill-rule="evenodd" clip-rule="evenodd" d="M63.3193 43.8716C61.9537 45.6744 54.1208 50.4478 49.6158 52.844C45.6582 54.9482 42.8954 56.1765 38.391 56.2781C35.1667 56.3511 31.6485 55.9226 28.7021 55.7449C25.3577 55.545 22.2093 55.5418 19.3167 56.5574C19.2124 56.4209 19.0954 56.2908 18.9721 56.167L8.79689 45.9507C8.72103 45.8745 8.642 45.8015 8.56298 45.7317C22.6104 29.6118 23.8938 42.7356 41.2259 42.7356C43.4986 42.6499 44.9717 45.135 43.8084 47.0996C42.5124 49.2895 38.0174 49.0483 35.871 48.8452C33.2537 48.5976 30.7786 47.9914 29.6248 47.3915C29.1727 47.1567 28.6195 47.3312 28.3824 47.7851C28.1485 48.239 28.3224 48.7944 28.7744 49.0324C30.1052 49.7275 32.849 50.413 35.6971 50.6828C38.874 50.9843 43.3942 50.9748 45.6037 48.2548C45.9925 47.7756 46.2359 47.3058 46.3844 46.9345C46.3275 46.9567 55.6177 42.9894 59.7586 40.5869C62.7394 38.8572 65.2651 41.2883 63.3116 43.8686L63.3193 43.8716ZM7.33363 47.4199C6.49276 46.5757 5.11772 46.5757 4.28009 47.4199L0 51.7173L13.2293 65L17.5094 60.7026C18.3502 59.8584 18.3502 58.4778 17.5094 57.6368L7.33363 47.4199ZM25.8229 27.3074L23.7872 30.3543L27.9819 34.5659L31.0165 32.522L34.8098 34.1026L35.5147 37.6985H41.4479L42.1528 34.1026L45.9461 32.522L48.9807 34.5659L53.1754 30.3543L51.1397 27.3074L52.7139 23.4988L56.2954 22.7911V18.4589H47.5169C47.5833 18.9 47.6149 19.3539 47.6149 19.8141C47.6149 24.8795 43.5245 28.9864 38.4795 28.9864C33.4345 28.9864 29.3441 24.8794 29.3441 19.8141C29.3441 19.3539 29.3789 18.9032 29.4421 18.4589H20.6636V22.7911L24.2451 23.4988L25.8193 27.3074H25.8229ZM37.4458 5.03691V23.8543C37.4458 24.4288 37.9105 24.8921 38.4794 24.8921C39.0516 24.8921 39.5131 24.4256 39.5131 23.8543V5.03691C40.4424 4.63383 41.0936 3.70709 41.0936 2.62477C41.0936 1.1743 39.924 0 38.4794 0C37.0347 0 35.8651 1.1743 35.8651 2.62477C35.8651 3.70384 36.5165 4.63383 37.4458 5.03691ZM43.2337 21.5785C43.8058 21.5785 44.2673 21.112 44.2673 20.5407V12.8157H51.1015C51.5029 13.7487 52.4259 14.4025 53.5039 14.4025C54.9485 14.4025 56.1181 13.2282 56.1181 11.7778C56.1181 10.3273 54.9485 9.15301 53.5039 9.15301C52.4292 9.15301 51.5029 9.80682 51.1015 10.7399H43.2304C42.6583 10.7399 42.1968 11.2064 42.1968 11.7777V20.5405C42.1968 21.1149 42.6615 21.5783 43.2304 21.5783L43.2337 21.5785ZM23.4577 14.4025C24.5325 14.4025 25.4587 13.7487 25.8602 12.8157H32.6944V20.5407C32.6944 21.1152 33.159 21.5785 33.728 21.5785C34.3001 21.5785 34.7616 21.112 34.7616 20.5407V11.7779C34.7616 11.2035 34.2969 10.7401 33.728 10.7401H25.8569C25.4555 9.80707 24.5325 9.15325 23.4545 9.15325C22.0099 9.15325 20.8403 10.3276 20.8403 11.778C20.8403 13.2285 22.0099 14.4028 23.4545 14.4028L23.4577 14.4025Z" fill="#233362"/>
</svg>
