<svg xmlns="http://www.w3.org/2000/svg" width="61.692" height="70.144" viewBox="0 0 61.692 70.144">
  <g id="Group_2845" data-name="Group 2845" transform="translate(-30.846 0)">
    <path id="Path_8725" data-name="Path 8725" d="M30.846,227.861v2.056a2.058,2.058,0,0,0,1.492,1.978,121.112,121.112,0,0,0,29.354,4.191A121.115,121.115,0,0,0,91.046,231.9a2.058,2.058,0,0,0,1.492-1.978v-2.056a2.055,2.055,0,0,0-2.056-2.057H32.9a2.055,2.055,0,0,0-2.056,2.057Z" transform="translate(0 -194.869)" fill="#000"/>
    <path id="Path_8726" data-name="Path 8726" d="M112.277,313.6a2.055,2.055,0,0,0,2.057-2.056v-5.451c-2.92.689-7.316,1.611-12.438,2.325a14.325,14.325,0,0,1-28.59,0c-5.124-.713-9.519-1.636-12.438-2.325v5.452a2.055,2.055,0,0,0,2.056,2.056h2.916a22.217,22.217,0,0,0,2.024,4.844l-2.075,2.075a2.056,2.056,0,0,0,0,2.908l5.816,5.816a2.056,2.056,0,0,0,2.908,0l2.074-2.074a22.239,22.239,0,0,0,4.844,2.024v3.053a2.055,2.055,0,0,0,2.056,2.057h8.226a2.055,2.055,0,0,0,2.056-2.057v-3.053a22.228,22.228,0,0,0,4.844-2.024l2.074,2.074a2.056,2.056,0,0,0,2.908,0l5.816-5.816a2.056,2.056,0,0,0,0-2.908l-2.075-2.075a22.224,22.224,0,0,0,2.024-4.844Z" transform="translate(-25.908 -264.159)" fill="#000"/>
    <path id="Path_8727" data-name="Path 8727" d="M86.831,22.527A2.054,2.054,0,0,1,84.112,21.5L77.693,7.128A26.964,26.964,0,0,0,63.762,26.823h52.673A26.963,26.963,0,0,0,102.5,7.128L96.085,21.5a2.056,2.056,0,0,1-3.747-1.691l7.106-15.9a2.063,2.063,0,0,0-1.276-2.84,30.869,30.869,0,0,0-16.138,0,2.063,2.063,0,0,0-1.277,2.84L87.86,19.808a2.053,2.053,0,0,1-1.028,2.719Z" transform="translate(-28.406)" fill="#000"/>
  </g>
</svg>
