<svg xmlns="http://www.w3.org/2000/svg" width="21" height="21" viewBox="0 0 21 21">
  <g id="_10.Linkedin" data-name="10.Linkedin" transform="translate(-51.2 -51.2)">
    <path id="Path_8494" data-name="Path 8494" d="M209.667,195.094V187.4c0-3.78-.814-6.667-5.224-6.667a4.558,4.558,0,0,0-4.121,2.257h-.052v-1.916H196.1v14.017h4.357v-6.956c0-1.838.341-3.6,2.6-3.6,2.231,0,2.257,2.074,2.257,3.7v6.825h4.357Z" transform="translate(-137.467 -122.895)" fill="#000"/>
    <path id="Path_8495" data-name="Path 8495" d="M57.856,187.392h4.357v14.017H57.856Z" transform="translate(-6.315 -129.21)" fill="#000"/>
    <path id="Path_8496" data-name="Path 8496" d="M53.72,51.2a2.533,2.533,0,1,0,2.52,2.52A2.521,2.521,0,0,0,53.72,51.2Z" transform="translate(0 0)" fill="#000"/>
  </g>
</svg>