<svg width="179" height="67" viewBox="0 0 179 67" fill="none" xmlns="http://www.w3.org/2000/svg">
<mask id="mask0_214_278" style="mask-type:luminance" maskUnits="userSpaceOnUse" x="5" y="21" width="18" height="36">
<path d="M5.7692 21.8195H22.5631V56.4826H5.7692V21.8195Z" fill="white"/>
</mask>
<g mask="url(#mask0_214_278)">
<path d="M21.4006 55.6885H-13.5809V23.4399H21.4006V55.6885Z" fill="#EFF3F6"/>
<path d="M-14.4423 22.6523H22.255V56.4826H-14.4423V22.6523ZM20.5392 24.2212H-12.7405V54.9138H20.5392V24.2212Z" fill="#EFF3F6"/>
</g>
<mask id="mask1_214_278" style="mask-type:luminance" maskUnits="userSpaceOnUse" x="5" y="10" width="18" height="14">
<path d="M5.7692 10.618H22.5631V23.4722H5.7692V10.618Z" fill="white"/>
</mask>
<g mask="url(#mask1_214_278)">
<path d="M21.4006 23.4399H-13.5809V-8.81506H21.4006V23.4399Z" fill="#EFF3F6"/>
</g>
<mask id="mask2_214_278" style="mask-type:luminance" maskUnits="userSpaceOnUse" x="5" y="10" width="18" height="16">
<path d="M5.7692 10.618H22.5631V25.125H5.7692V10.618Z" fill="white"/>
</mask>
<g mask="url(#mask2_214_278)">
<path d="M-14.4423 -9.60919H22.255V24.2211H-14.4423V-9.60919ZM20.5392 -8.04034H-12.7405V22.6523H20.5392V-8.04034Z" fill="#EFF3F6"/>
</g>
<mask id="mask3_214_278" style="mask-type:luminance" maskUnits="userSpaceOnUse" x="20" y="10" width="37" height="14">
<path d="M20.7703 10.618H56.6271V23.4722H20.7703V10.618Z" fill="white"/>
</mask>
<g mask="url(#mask3_214_278)">
<path d="M56.389 23.4399H21.4006V-8.81506H56.389V23.4399Z" fill="#EFF3F6"/>
</g>
<mask id="mask4_214_278" style="mask-type:luminance" maskUnits="userSpaceOnUse" x="18" y="10" width="39" height="16">
<path d="M18.9774 10.618H56.8652V25.125H18.9774V10.618Z" fill="white"/>
</mask>
<g mask="url(#mask4_214_278)">
<path d="M20.5392 -9.60919H57.2364V24.2211H20.5392V-9.60919ZM55.5346 -8.04034H22.255V22.6523H55.5346V-8.04034Z" fill="#EFF3F6"/>
</g>
<mask id="mask5_214_278" style="mask-type:luminance" maskUnits="userSpaceOnUse" x="5" y="10" width="52" height="47">
<path d="M5.7692 10.618H56.8652V56.4826H5.7692V10.618Z" fill="white"/>
</mask>
<g mask="url(#mask5_214_278)">
<path d="M-49.4378 -9.59619H57.2364V24.2212H22.2549V56.4826H-49.4378V-9.59619ZM55.5346 -8.02734H-47.729V54.9138H20.5391V22.6523H55.5346V-8.02734Z" fill="#EFF3F6"/>
</g>
<path d="M33.8066 53.5704H31.2855V30.3024H33.8066V33.737C34.591 32.4458 35.6905 31.4387 37.1122 30.7156C38.5479 29.9796 40.3617 29.6051 42.5468 29.6051C45.9083 29.6051 48.3245 30.5025 49.8022 32.2909C51.2939 34.0663 52.0432 36.539 52.0432 39.7025H49.522C49.522 38.1531 49.326 36.8037 48.9338 35.6481C48.5416 34.4795 47.8413 33.5692 46.8328 32.9107C45.8243 32.2586 44.3536 31.9293 42.4347 31.9293C39.7454 31.9293 37.6304 32.7751 36.1037 34.4601C34.57 36.1517 33.8066 38.6308 33.8066 41.8976V53.5704Z" fill="#EFF3F6"/>
<path d="M74.3994 38.4888C74.3994 36.9393 74.1052 35.7255 73.5309 34.8475C72.9707 33.9566 72.2213 33.298 71.2899 32.8848C70.3725 32.4716 69.399 32.2134 68.3765 32.1101C67.347 31.9939 66.3736 31.9293 65.4631 31.9293C64.4547 31.9293 63.4462 31.9939 62.4377 32.1101C61.4292 32.2134 60.5048 32.4716 59.6644 32.8848C58.824 33.298 58.1377 33.9436 57.6195 34.8217C57.0942 35.6868 56.8351 36.8618 56.8351 38.3597H54.3139C54.3139 35.3124 55.3014 33.0914 57.2833 31.6969C59.2582 30.3024 61.9405 29.6051 65.3231 29.6051C69.2239 29.6051 72.1303 30.3734 74.0352 31.9035C75.9541 33.4207 76.9205 35.6352 76.9205 38.5404V53.5704H74.3994V50.2132C73.8531 51.3688 72.8376 52.3308 71.3459 53.1055C69.8682 53.8803 67.5921 54.2676 64.5107 54.2676C62.1576 54.2676 60.1126 54.0481 58.3758 53.622C56.639 53.2088 55.2944 52.5051 54.3419 51.5044C53.4035 50.4908 52.9413 49.0898 52.9413 47.295C52.9413 45.1257 53.9217 43.4342 55.8826 42.2075C57.8576 40.9679 61.0511 40.1028 65.4631 39.5992L74.3994 38.6437V38.4888ZM74.3994 40.7355L65.0149 41.7427C63.5022 41.8976 62.0245 42.1946 60.5889 42.6207C59.1462 43.0339 57.9696 43.615 57.0592 44.351C56.1628 45.0934 55.7146 46.0748 55.7146 47.295C55.7146 48.1601 55.9247 48.9413 56.3589 49.645C56.8071 50.3358 57.6545 50.8975 58.9081 51.3236C60.1757 51.7368 62.0455 51.9434 64.5107 51.9434C66.3946 51.9434 67.9563 51.7562 69.1889 51.3753C70.4355 50.9815 71.43 50.4843 72.1583 49.8775C72.9006 49.277 73.4469 48.6379 73.7831 47.9664C74.1192 47.295 74.3223 46.6881 74.3994 46.1329V40.7355Z" fill="#EFF3F6"/>
<path d="M82.8694 53.5705H80.3482V18.6555H82.8694V53.5705Z" fill="#EFF3F6"/>
<path d="M85.5485 23.2265C85.5485 21.677 86.3889 20.9023 88.0697 20.9023C89.7505 20.9023 90.5908 21.677 90.5908 23.2265C90.5908 24.776 89.7505 25.5507 88.0697 25.5507C86.3889 25.5507 85.5485 24.776 85.5485 23.2265ZM86.8091 53.5705V30.3025H89.3303V53.5705H86.8091Z" fill="#EFF3F6"/>
<path d="M92.4015 35.6997C92.4015 34.2729 92.8848 33.1108 93.8582 32.2134C94.8457 31.3224 96.1833 30.6639 97.8641 30.2507C99.5449 29.8246 101.464 29.6051 103.635 29.6051C107.76 29.6051 110.848 30.2895 112.907 31.6453C114.959 32.9881 115.989 35.1768 115.989 38.2047H113.467C113.467 35.7966 112.571 34.1502 110.778 33.2722C108.999 32.3813 106.618 31.9293 103.635 31.9293C101.261 31.9293 99.4679 32.1295 98.2563 32.5233C97.0587 32.9042 96.2463 33.3884 95.8191 33.9695C95.406 34.5376 95.2029 35.1316 95.2029 35.7514C95.2029 36.4099 95.462 37.0168 95.9872 37.5849C96.5265 38.1531 97.4719 38.6954 98.8166 39.2119C100.161 39.7284 102.066 40.2384 104.531 40.7355C107.052 41.2197 109.181 41.7169 110.918 42.2334C112.655 42.7499 113.958 43.4407 114.84 44.2993C115.737 45.1451 116.185 46.3588 116.185 47.9406C116.185 50.2648 115.232 51.9047 113.327 52.8473C111.436 53.7899 108.656 54.2676 104.979 54.2676C100.567 54.2676 97.3459 53.5833 95.3149 52.2275C93.277 50.8523 92.2615 48.6637 92.2615 45.668H94.7827C94.7827 47.2175 95.2309 48.4571 96.1273 49.3868C97.0237 50.3165 98.2353 50.9815 99.769 51.3753C101.317 51.7562 103.033 51.9434 104.923 51.9434C108.131 51.9434 110.344 51.5948 111.563 50.8846C112.795 50.1615 113.411 49.2254 113.411 48.0697C113.411 46.9334 113.019 46.1006 112.235 45.5647C111.465 45.016 110.344 44.5834 108.873 44.2735C107.396 43.9636 105.575 43.5892 103.411 43.1372C101.597 42.7434 99.853 42.2592 98.1723 41.691C96.4915 41.11 95.1048 40.3417 94.0263 39.3926C92.9408 38.45 92.4015 37.2169 92.4015 35.6997Z" fill="#EFF3F6"/>
<path d="M125.137 45.9779V32.6266H117.601V30.3024H125.137V21.0055H127.658V30.3024H141.328V32.6266H127.658V44.9708C127.658 45.7455 127.693 46.5461 127.77 47.3725C127.861 48.1859 128.064 48.9413 128.386 49.645C128.701 50.3358 129.205 50.8975 129.899 51.3236C130.585 51.7368 131.538 51.9434 132.756 51.9434C133.765 51.9434 134.696 51.7304 135.557 51.2978C136.433 50.8523 137.14 50.1099 137.686 49.0769C138.226 48.0439 138.499 46.5977 138.499 44.7383H141.02C141.02 47.1142 140.67 49.0123 139.984 50.4198C139.29 51.8143 138.317 52.8086 137.07 53.3896C135.838 53.9707 134.395 54.2676 132.756 54.2676C131.257 54.2676 129.941 54.0159 128.806 53.5187C127.665 53.0216 126.768 52.1694 126.117 50.9621C125.459 49.7612 125.137 48.0956 125.137 45.9779Z" fill="#EFF3F6"/>
<path d="M164.196 38.4888C164.196 36.9393 163.902 35.7255 163.328 34.8475C162.767 33.9566 162.018 33.298 161.087 32.8848C160.169 32.4716 159.196 32.2134 158.173 32.1101C157.144 31.9939 156.17 31.9293 155.26 31.9293C154.251 31.9293 153.243 31.9939 152.235 32.1101C151.226 32.2134 150.302 32.4716 149.461 32.8848C148.621 33.298 147.934 33.9436 147.416 34.8217C146.891 35.6868 146.632 36.8618 146.632 38.3597H144.111C144.111 35.3124 145.098 33.0914 147.08 31.6969C149.055 30.3024 151.737 29.6051 155.12 29.6051C159.021 29.6051 161.927 30.3734 163.832 31.9035C165.751 33.4207 166.717 35.6352 166.717 38.5404V53.5704H164.196V50.2132C163.65 51.3688 162.634 52.3308 161.143 53.1055C159.665 53.8803 157.389 54.2676 154.307 54.2676C151.954 54.2676 149.909 54.0481 148.173 53.622C146.436 53.2088 145.091 52.5051 144.139 51.5044C143.2 50.4908 142.738 49.0898 142.738 47.295C142.738 45.1257 143.718 43.4342 145.679 42.2075C147.654 40.9679 150.848 40.1028 155.26 39.5992L164.196 38.6437V38.4888ZM164.196 40.7355L154.812 41.7427C153.299 41.8976 151.821 42.1946 150.386 42.6207C148.943 43.0339 147.766 43.615 146.856 44.351C145.96 45.0934 145.511 46.0748 145.511 47.295C145.511 48.1601 145.721 48.9413 146.156 49.645C146.604 50.3358 147.451 50.8975 148.705 51.3236C149.972 51.7368 151.842 51.9434 154.307 51.9434C156.191 51.9434 157.753 51.7562 158.986 51.3753C160.232 50.9815 161.227 50.4843 161.955 49.8775C162.697 49.277 163.244 48.6379 163.58 47.9664C163.916 47.295 164.119 46.6881 164.196 46.1329V40.7355Z" fill="#EFF3F6"/>
</svg>
