<svg xmlns="http://www.w3.org/2000/svg" xmlns:xlink="http://www.w3.org/1999/xlink" width="336" zoomAndPan="magnify" viewBox="0 0 252 143.999998" height="192" preserveAspectRatio="xMidYMid meet" version="1.0"><defs><g/><clipPath id="8e9a36f95e"><path d="M 79.632812 61 L 89 61 L 89 81.972656 L 79.632812 81.972656 Z M 79.632812 61 " clip-rule="nonzero"/></clipPath><clipPath id="79fa221e73"><path d="M 79.632812 54.222656 L 89 54.222656 L 89 62 L 79.632812 62 Z M 79.632812 54.222656 " clip-rule="nonzero"/></clipPath><clipPath id="c2b2075779"><path d="M 79.632812 54.222656 L 89 54.222656 L 89 63 L 79.632812 63 Z M 79.632812 54.222656 " clip-rule="nonzero"/></clipPath><clipPath id="6be755b803"><path d="M 88 54.222656 L 108 54.222656 L 108 62 L 88 62 Z M 88 54.222656 " clip-rule="nonzero"/></clipPath><clipPath id="6b50068a75"><path d="M 87 54.222656 L 108.132812 54.222656 L 108.132812 63 L 87 63 Z M 87 54.222656 " clip-rule="nonzero"/></clipPath><clipPath id="ad44663bf2"><path d="M 79.632812 54.222656 L 108.132812 54.222656 L 108.132812 81.972656 L 79.632812 81.972656 Z M 79.632812 54.222656 " clip-rule="nonzero"/></clipPath></defs><g clip-path="url(#8e9a36f95e)"><path fill="#fff" d="M 88.351562 81.492188 L 68.839844 81.492188 L 68.839844 61.980469 L 88.351562 61.980469 Z M 88.351562 81.492188 " fill-opacity="1" fill-rule="nonzero"/><path fill="#fff" d="M 68.359375 61.503906 L 88.828125 61.503906 L 88.828125 81.972656 L 68.359375 81.972656 Z M 87.871094 62.453125 L 69.308594 62.453125 L 69.308594 81.023438 L 87.871094 81.023438 Z M 87.871094 62.453125 " fill-opacity="1" fill-rule="nonzero"/></g><g clip-path="url(#79fa221e73)"><path fill="#fff" d="M 88.351562 61.980469 L 68.839844 61.980469 L 68.839844 42.464844 L 88.351562 42.464844 Z M 88.351562 61.980469 " fill-opacity="1" fill-rule="nonzero"/></g><g clip-path="url(#c2b2075779)"><path fill="#fff" d="M 68.359375 41.984375 L 88.828125 41.984375 L 88.828125 62.453125 L 68.359375 62.453125 Z M 87.871094 42.933594 L 69.308594 42.933594 L 69.308594 61.503906 L 87.871094 61.503906 Z M 87.871094 42.933594 " fill-opacity="1" fill-rule="nonzero"/></g><g clip-path="url(#6be755b803)"><path fill="#fff" d="M 107.867188 61.980469 L 88.351562 61.980469 L 88.351562 42.464844 L 107.867188 42.464844 Z M 107.867188 61.980469 " fill-opacity="1" fill-rule="nonzero"/></g><g clip-path="url(#6b50068a75)"><path fill="#fff" d="M 87.871094 41.984375 L 108.339844 41.984375 L 108.339844 62.453125 L 87.871094 62.453125 Z M 107.390625 42.933594 L 88.828125 42.933594 L 88.828125 61.503906 L 107.390625 61.503906 Z M 107.390625 42.933594 " fill-opacity="1" fill-rule="nonzero"/></g><g clip-path="url(#ad44663bf2)"><path fill="#fff" d="M 48.839844 41.992188 L 108.339844 41.992188 L 108.339844 62.453125 L 88.828125 62.453125 L 88.828125 81.972656 L 48.839844 81.972656 Z M 107.390625 42.941406 L 49.792969 42.941406 L 49.792969 81.023438 L 87.871094 81.023438 L 87.871094 61.503906 L 107.390625 61.503906 Z M 107.390625 42.941406 " fill-opacity="1" fill-rule="nonzero"/></g><g fill="#fff" fill-opacity="1"><g transform="translate(92.458847, 80.210669)"><g><path d="M 2.8125 0 L 1.40625 0 L 1.40625 -14.078125 L 2.8125 -14.078125 L 2.8125 -12 C 3.25 -12.78125 3.863281 -13.390625 4.65625 -13.828125 C 5.457031 -14.273438 6.46875 -14.5 7.6875 -14.5 C 9.5625 -14.5 10.910156 -13.957031 11.734375 -12.875 C 12.566406 -11.800781 12.984375 -10.304688 12.984375 -8.390625 L 11.578125 -8.390625 C 11.578125 -9.328125 11.46875 -10.144531 11.25 -10.84375 C 11.03125 -11.550781 10.640625 -12.101562 10.078125 -12.5 C 9.515625 -12.894531 8.695312 -13.09375 7.625 -13.09375 C 6.125 -13.09375 4.945312 -12.582031 4.09375 -11.5625 C 3.238281 -10.539062 2.8125 -9.039062 2.8125 -7.0625 Z M 2.8125 0 "/></g></g></g><g fill="#fff" fill-opacity="1"><g transform="translate(105.381617, 80.210669)"><g><path d="M 12.53125 -9.125 C 12.53125 -10.0625 12.367188 -10.796875 12.046875 -11.328125 C 11.734375 -11.867188 11.316406 -12.265625 10.796875 -12.515625 C 10.285156 -12.765625 9.742188 -12.921875 9.171875 -12.984375 C 8.597656 -13.054688 8.054688 -13.09375 7.546875 -13.09375 C 6.984375 -13.09375 6.421875 -13.054688 5.859375 -12.984375 C 5.296875 -12.921875 4.78125 -12.765625 4.3125 -12.515625 C 3.84375 -12.265625 3.460938 -11.875 3.171875 -11.34375 C 2.878906 -10.820312 2.734375 -10.109375 2.734375 -9.203125 L 1.328125 -9.203125 C 1.328125 -11.046875 1.878906 -12.390625 2.984375 -13.234375 C 4.085938 -14.078125 5.582031 -14.5 7.46875 -14.5 C 9.644531 -14.5 11.265625 -14.035156 12.328125 -13.109375 C 13.398438 -12.191406 13.9375 -10.851562 13.9375 -9.09375 L 13.9375 0 L 12.53125 0 L 12.53125 -2.03125 C 12.226562 -1.332031 11.660156 -0.75 10.828125 -0.28125 C 10.003906 0.1875 8.734375 0.421875 7.015625 0.421875 C 5.703125 0.421875 4.5625 0.289062 3.59375 0.03125 C 2.625 -0.21875 1.875 -0.644531 1.34375 -1.25 C 0.820312 -1.863281 0.5625 -2.710938 0.5625 -3.796875 C 0.5625 -5.109375 1.109375 -6.132812 2.203125 -6.875 C 3.304688 -7.625 5.085938 -8.148438 7.546875 -8.453125 L 12.53125 -9.03125 Z M 12.53125 -7.765625 L 7.296875 -7.15625 C 6.453125 -7.0625 5.628906 -6.882812 4.828125 -6.625 C 4.023438 -6.375 3.367188 -6.023438 2.859375 -5.578125 C 2.359375 -5.128906 2.109375 -4.535156 2.109375 -3.796875 C 2.109375 -3.273438 2.226562 -2.800781 2.46875 -2.375 C 2.71875 -1.957031 3.191406 -1.617188 3.890625 -1.359375 C 4.597656 -1.109375 5.640625 -0.984375 7.015625 -0.984375 C 8.066406 -0.984375 8.9375 -1.097656 9.625 -1.328125 C 10.320312 -1.566406 10.875 -1.867188 11.28125 -2.234375 C 11.695312 -2.597656 12 -2.984375 12.1875 -3.390625 C 12.375 -3.796875 12.488281 -4.164062 12.53125 -4.5 Z M 12.53125 -7.765625 "/></g></g></g><g fill="#fff" fill-opacity="1"><g transform="translate(119.824718, 80.210669)"><g><path d="M 2.8125 0 L 1.40625 0 L 1.40625 -21.125 L 2.8125 -21.125 Z M 2.8125 0 "/></g></g></g><g fill="#fff" fill-opacity="1"><g transform="translate(123.428419, 80.210669)"><g><path d="M 0.703125 -18.359375 C 0.703125 -19.296875 1.171875 -19.765625 2.109375 -19.765625 C 3.046875 -19.765625 3.515625 -19.296875 3.515625 -18.359375 C 3.515625 -17.421875 3.046875 -16.953125 2.109375 -16.953125 C 1.171875 -16.953125 0.703125 -17.421875 0.703125 -18.359375 Z M 1.40625 0 L 1.40625 -14.078125 L 2.8125 -14.078125 L 2.8125 0 Z M 1.40625 0 "/></g></g></g><g fill="#fff" fill-opacity="1"><g transform="translate(127.03212, 80.210669)"><g><path d="M 0.921875 -10.8125 C 0.921875 -11.675781 1.191406 -12.378906 1.734375 -12.921875 C 2.285156 -13.460938 3.03125 -13.859375 3.96875 -14.109375 C 4.90625 -14.367188 5.976562 -14.5 7.1875 -14.5 C 9.488281 -14.5 11.210938 -14.085938 12.359375 -13.265625 C 13.503906 -12.453125 14.078125 -11.128906 14.078125 -9.296875 L 12.671875 -9.296875 C 12.671875 -10.753906 12.171875 -11.75 11.171875 -12.28125 C 10.179688 -12.820312 8.851562 -13.09375 7.1875 -13.09375 C 5.863281 -13.09375 4.863281 -12.972656 4.1875 -12.734375 C 3.519531 -12.503906 3.066406 -12.210938 2.828125 -11.859375 C 2.597656 -11.515625 2.484375 -11.15625 2.484375 -10.78125 C 2.484375 -10.382812 2.628906 -10.015625 2.921875 -9.671875 C 3.222656 -9.328125 3.75 -9 4.5 -8.6875 C 5.25 -8.375 6.3125 -8.066406 7.6875 -7.765625 C 9.09375 -7.472656 10.28125 -7.171875 11.25 -6.859375 C 12.21875 -6.546875 12.945312 -6.128906 13.4375 -5.609375 C 13.9375 -5.097656 14.1875 -4.363281 14.1875 -3.40625 C 14.1875 -2 13.65625 -1.007812 12.59375 -0.4375 C 11.539062 0.132812 9.988281 0.421875 7.9375 0.421875 C 5.476562 0.421875 3.679688 0.0078125 2.546875 -0.8125 C 1.410156 -1.644531 0.84375 -2.96875 0.84375 -4.78125 L 2.25 -4.78125 C 2.25 -3.84375 2.5 -3.09375 3 -2.53125 C 3.5 -1.96875 4.175781 -1.566406 5.03125 -1.328125 C 5.894531 -1.097656 6.851562 -0.984375 7.90625 -0.984375 C 9.695312 -0.984375 10.929688 -1.195312 11.609375 -1.625 C 12.296875 -2.0625 12.640625 -2.628906 12.640625 -3.328125 C 12.640625 -4.015625 12.421875 -4.519531 11.984375 -4.84375 C 11.554688 -5.175781 10.929688 -5.4375 10.109375 -5.625 C 9.285156 -5.8125 8.269531 -6.039062 7.0625 -6.3125 C 6.050781 -6.550781 5.078125 -6.84375 4.140625 -7.1875 C 3.203125 -7.539062 2.429688 -8.003906 1.828125 -8.578125 C 1.222656 -9.148438 0.921875 -9.894531 0.921875 -10.8125 Z M 0.921875 -10.8125 "/></g></g></g><g fill="#fff" fill-opacity="1"><g transform="translate(141.447064, 80.210669)"><g><path d="M 4.765625 -4.59375 L 4.765625 -12.671875 L 0.5625 -12.671875 L 0.5625 -14.078125 L 4.765625 -14.078125 L 4.765625 -19.703125 L 6.171875 -19.703125 L 6.171875 -14.078125 L 13.796875 -14.078125 L 13.796875 -12.671875 L 6.171875 -12.671875 L 6.171875 -5.203125 C 6.171875 -4.734375 6.191406 -4.25 6.234375 -3.75 C 6.285156 -3.257812 6.398438 -2.800781 6.578125 -2.375 C 6.753906 -1.957031 7.035156 -1.617188 7.421875 -1.359375 C 7.804688 -1.109375 8.335938 -0.984375 9.015625 -0.984375 C 9.578125 -0.984375 10.097656 -1.113281 10.578125 -1.375 C 11.066406 -1.644531 11.460938 -2.09375 11.765625 -2.71875 C 12.066406 -3.34375 12.21875 -4.21875 12.21875 -5.34375 L 13.625 -5.34375 C 13.625 -3.90625 13.429688 -2.757812 13.046875 -1.90625 C 12.660156 -1.0625 12.117188 -0.460938 11.421875 -0.109375 C 10.734375 0.242188 9.929688 0.421875 9.015625 0.421875 C 8.179688 0.421875 7.445312 0.269531 6.8125 -0.03125 C 6.175781 -0.332031 5.675781 -0.847656 5.3125 -1.578125 C 4.945312 -2.304688 4.765625 -3.3125 4.765625 -4.59375 Z M 4.765625 -4.59375 "/></g></g></g><g fill="#fff" fill-opacity="1"><g transform="translate(155.467851, 80.210669)"><g><path d="M 12.53125 -9.125 C 12.53125 -10.0625 12.367188 -10.796875 12.046875 -11.328125 C 11.734375 -11.867188 11.316406 -12.265625 10.796875 -12.515625 C 10.285156 -12.765625 9.742188 -12.921875 9.171875 -12.984375 C 8.597656 -13.054688 8.054688 -13.09375 7.546875 -13.09375 C 6.984375 -13.09375 6.421875 -13.054688 5.859375 -12.984375 C 5.296875 -12.921875 4.78125 -12.765625 4.3125 -12.515625 C 3.84375 -12.265625 3.460938 -11.875 3.171875 -11.34375 C 2.878906 -10.820312 2.734375 -10.109375 2.734375 -9.203125 L 1.328125 -9.203125 C 1.328125 -11.046875 1.878906 -12.390625 2.984375 -13.234375 C 4.085938 -14.078125 5.582031 -14.5 7.46875 -14.5 C 9.644531 -14.5 11.265625 -14.035156 12.328125 -13.109375 C 13.398438 -12.191406 13.9375 -10.851562 13.9375 -9.09375 L 13.9375 0 L 12.53125 0 L 12.53125 -2.03125 C 12.226562 -1.332031 11.660156 -0.75 10.828125 -0.28125 C 10.003906 0.1875 8.734375 0.421875 7.015625 0.421875 C 5.703125 0.421875 4.5625 0.289062 3.59375 0.03125 C 2.625 -0.21875 1.875 -0.644531 1.34375 -1.25 C 0.820312 -1.863281 0.5625 -2.710938 0.5625 -3.796875 C 0.5625 -5.109375 1.109375 -6.132812 2.203125 -6.875 C 3.304688 -7.625 5.085938 -8.148438 7.546875 -8.453125 L 12.53125 -9.03125 Z M 12.53125 -7.765625 L 7.296875 -7.15625 C 6.453125 -7.0625 5.628906 -6.882812 4.828125 -6.625 C 4.023438 -6.375 3.367188 -6.023438 2.859375 -5.578125 C 2.359375 -5.128906 2.109375 -4.535156 2.109375 -3.796875 C 2.109375 -3.273438 2.226562 -2.800781 2.46875 -2.375 C 2.71875 -1.957031 3.191406 -1.617188 3.890625 -1.359375 C 4.597656 -1.109375 5.640625 -0.984375 7.015625 -0.984375 C 8.066406 -0.984375 8.9375 -1.097656 9.625 -1.328125 C 10.320312 -1.566406 10.875 -1.867188 11.28125 -2.234375 C 11.695312 -2.597656 12 -2.984375 12.1875 -3.390625 C 12.375 -3.796875 12.488281 -4.164062 12.53125 -4.5 Z M 12.53125 -7.765625 "/></g></g></g></svg>