<svg xmlns="http://www.w3.org/2000/svg" width="38.4" height="27" viewBox="0 0 38.4 27">
  <g id="Group_2705" data-name="Group 2705" transform="translate(0 -180.844)">
    <g id="Group_2704" data-name="Group 2704" transform="translate(0 180.844)">
      <path id="Path_7843" data-name="Path 7843" d="M35.025,180.844H3.375A3.379,3.379,0,0,0,0,184.219v20.25a3.38,3.38,0,0,0,3.375,3.375h31.65a3.379,3.379,0,0,0,3.375-3.375v-20.25A3.38,3.38,0,0,0,35.025,180.844Zm-.518,2.25L20.072,197.576a1.314,1.314,0,0,1-1.744,0L3.893,183.094ZM2.25,204.055V184.633l9.68,9.711Zm1.643,1.539,9.625-9.656,3.216,3.227a3.561,3.561,0,0,0,4.931,0l3.216-3.227,9.625,9.656Zm32.257-1.539-9.68-9.711,9.68-9.711Z" transform="translate(0 -180.844)" fill="#000"/>
    </g>
  </g>
</svg>
