<svg width="68" height="58" viewBox="0 0 68 58" fill="none" xmlns="http://www.w3.org/2000/svg">
<path fill-rule="evenodd" clip-rule="evenodd" d="M34.0002 8.87692L2.66991 57.3343C2.23384 58.0082 1.33261 58.2008 0.661102 57.7632C-0.0104396 57.3255 -0.202345 56.421 0.233754 55.747L32.2703 6.19544L29.7207 2.25073C29.2846 1.57674 29.4765 0.672235 30.1481 0.234606C30.8196 -0.203052 31.7208 -0.0104779 32.1569 0.663511L34 3.51702L35.8431 0.663511C36.2792 -0.0104779 37.1804 -0.203082 37.852 0.234606C38.5235 0.672265 38.7154 1.57677 38.2793 2.25073L35.7297 6.19544L67.7663 55.747C68.2023 56.421 68.0105 57.3255 67.3389 57.7632C66.6674 58.2008 65.7662 58.0082 65.3301 57.3343L34.0002 8.87692ZM19.6419 57.9998H8.03351C7.26309 57.9998 6.63229 57.3987 6.58287 56.6401L34 14.2367L61.4171 56.6401C61.3677 57.3987 60.7369 57.9998 59.9665 57.9998H48.3581V51.0236C48.3581 50.1803 48.1139 49.3546 47.6575 48.6456L37.6596 33.1348C36.8573 31.8889 35.4793 31.1361 33.9996 31.1361C32.5198 31.1361 31.1419 31.8889 30.3395 33.1348L20.3416 48.6456C19.8852 49.3546 19.641 50.1803 19.641 51.0236L19.6419 57.9998ZM32.7789 34.7193C33.0463 34.305 33.5057 34.0541 33.9999 34.0541C34.4941 34.0541 34.9534 34.305 35.2208 34.7193L45.2187 50.2302C45.3699 50.4665 45.4513 50.7408 45.4513 51.0238V58H22.5493V51.0238C22.5493 50.7437 22.6307 50.4665 22.7819 50.2302L32.7789 34.7193Z" fill="#233362"/>
</svg>
