<svg xmlns="http://www.w3.org/2000/svg" width="74.889" height="70.203" viewBox="0 0 74.889 70.203">
  <g id="Layer_1" data-name="Layer 1" transform="translate(-34.061 -47.503)">
    <path id="Path_8718" data-name="Path 8718" d="M86.491,304.348V279.419l-52.43-7.394v23.063Z" transform="translate(0 -186.641)" fill="#000"/>
    <path id="Path_8719" data-name="Path 8719" d="M377.39,280.613V255.849l-20.407,9.874v24.764Z" transform="translate(-268.44 -173.195)" fill="#000"/>
    <path id="Path_8720" data-name="Path 8720" d="M72,61.557a1.025,1.025,0,0,1,.44.706l.249,1.769,14.937,1.942L92.611,64a1.011,1.011,0,0,1,.238-.063l20.429-2.824,4.359-9.651L67.219,47.5,62.661,55.22Z" transform="translate(-23.775)" fill="#000"/>
    <path id="Path_8721" data-name="Path 8721" d="M208.4,90.064l-20.866,2.885-5.115,2.032a1.018,1.018,0,0,1-.511.064l-5.829-.758,3.169,6.612,47.049,5.87L213.486,79.983,209.2,89.47A1.026,1.026,0,0,1,208.4,90.064Z" transform="translate(-118.061 -27)" fill="#000"/>
    <path id="Path_8722" data-name="Path 8722" d="M103.988,230.713l19.054-9.219-45.789-5.712-23.178,7.893Z" transform="translate(-16.637 -139.888)" fill="#000"/>
  </g>
</svg>
