<svg width="66" height="58" viewBox="0 0 66 58" fill="none" xmlns="http://www.w3.org/2000/svg">
<path d="M65.4655 28.3474L59.4116 19.4399V3.17407C59.4116 2.77223 59.0971 2.42862 58.6953 2.39947L26.7309 0H26.693H26.6785H26.6552H26.5736L8.89815 2.4606C8.51668 2.51301 8.2284 2.84206 8.2284 3.22931V19.2044L0.199844 28.0828C0.0280386 28.2692 -0.0389334 28.5312 0.0222163 28.7758C0.0804551 29.0204 0.252257 29.2243 0.485212 29.3204L8.23124 32.4798V49.7826C8.23124 50.1117 8.43216 50.3999 8.73792 50.5135L26.4134 56.9926H26.428C26.5095 57.0217 26.591 57.0362 26.6813 57.0362C26.757 57.0362 26.8298 57.0275 26.9055 56.9984L58.8699 47.1971C59.199 47.101 59.4144 46.7953 59.4144 46.4604V30.8871L65.0054 29.5389C65.25 29.4806 65.4538 29.3001 65.5499 29.0613C65.6402 28.8225 65.6081 28.5546 65.4684 28.345L65.4655 28.3474ZM25.8953 1.65931V20.907C25.8953 21.3321 26.2447 21.6816 26.6699 21.6816C27.095 21.6816 27.4445 21.3321 27.4445 20.907L27.4474 1.59818L57.8627 3.88695V18.8482L26.731 25.3477L9.77188 18.9677V3.90127L25.8953 1.65618L25.8953 1.65931ZM9.27384 31.23L2.0872 28.3006L9.22143 20.4152L25.406 26.507L18.563 35.0216L9.31185 31.2506C9.31185 31.2506 9.28856 31.2419 9.28273 31.2361L9.27384 31.23ZM25.8953 55.1458L9.7718 49.2403V33.1169L18.5018 36.681C18.8221 36.8092 19.1803 36.7189 19.3958 36.451L25.8894 28.3613V55.1537L25.8953 55.1458ZM57.8626 45.8797L27.4473 55.2069V28.2363L34.5728 36.4654C34.7213 36.6372 34.9368 36.7333 35.161 36.7333C35.2193 36.7333 35.2804 36.7333 35.3386 36.71L57.8596 31.2617V45.8794L57.8626 45.8797ZM35.4378 35.0908L28.126 26.6462L58.1745 20.3681L63.5558 28.2915L35.4378 35.0908Z" fill="#233362"/>
<path d="M33.8217 20.2815C34.2468 20.2815 34.5963 19.9321 34.5963 19.5069V10.1596L51.7999 10.8818V15.9224C51.7999 16.3475 52.1493 16.697 52.5745 16.697C52.9996 16.697 53.3491 16.3475 53.3491 15.9224V10.1364C53.3491 9.71995 53.0201 9.38217 52.6036 9.36175L33.848 8.57261C33.6383 8.56387 33.4316 8.63958 33.2802 8.78809C33.1317 8.9366 33.0414 9.13752 33.0414 9.34718V19.501C33.0414 19.9262 33.3908 20.2756 33.816 20.2756L33.8217 20.2815Z" fill="#233362"/>
</svg>
