<svg xmlns="http://www.w3.org/2000/svg" width="57.416" height="70.001" viewBox="0 0 57.416 70.001">
  <g id="Group_2850" data-name="Group 2850" transform="translate(-72.539 -32)">
    <ellipse id="Ellipse_5" data-name="Ellipse 5" cx="7.5" cy="2.5" rx="7.5" ry="2.5" transform="translate(102.455 87.001)" fill="#000"/>
    <path id="Path_8768" data-name="Path 8768" d="M188.911,466.5h32.5a3.756,3.756,0,0,0,3.535-2.5h-39.57A3.756,3.756,0,0,0,188.911,466.5Z" transform="translate(-95.206 -364.499)" fill="#000"/>
    <path id="Path_8769" data-name="Path 8769" d="M92.965,97.75a1.246,1.246,0,0,1,.012-.164A6.791,6.791,0,0,1,94.6,92.857a8.346,8.346,0,0,1,2.449-1.941L98.8,64H74.625l3.262,50H89.215v-6.25a6.258,6.258,0,0,1,3.75-5.727Zm-15-22.5v-7.5a1.25,1.25,0,0,1,1.25-1.25h15a1.25,1.25,0,0,1,1.25,1.25v7.5a1.25,1.25,0,0,1-1.25,1.25h-15A1.25,1.25,0,0,1,77.965,75.25Zm13.75,6.25h-10a1.25,1.25,0,1,1,0-2.5h10a1.25,1.25,0,0,1,0,2.5Z" transform="translate(-1.76 -27)" fill="#000"/>
    <path id="Path_8770" data-name="Path 8770" d="M184,367h40V352H184Zm13.321-11.3a19.2,19.2,0,0,1,13.359,0c2.889,1.238,3.32,2.913,3.32,3.8s-.431,2.563-3.32,3.8a19.2,19.2,0,0,1-13.359,0c-2.889-1.238-3.32-2.913-3.32-3.8S194.432,356.938,197.321,355.7Z" transform="translate(-94.045 -269.999)" fill="#000"/>
    <path id="Path_8771" data-name="Path 8771" d="M188.911,320a3.756,3.756,0,0,0-3.535,2.5h39.57a3.756,3.756,0,0,0-3.535-2.5Z" transform="translate(-95.206 -243)" fill="#000"/>
    <path id="Path_8772" data-name="Path 8772" d="M209.447,217.648a4.354,4.354,0,0,0-1.009,2.066h32.373a11.324,11.324,0,0,0-3.833-7.524,14.425,14.425,0,0,0-3.16-2.158,9.786,9.786,0,0,1-2.5,2.1c-3.036,1.849-7.339,2.787-12.79,2.787-4.394,0-7.534.942-9.081,2.725Z" transform="translate(-114.665 -150.214)" fill="#000"/>
    <path id="Path_8773" data-name="Path 8773" d="M208,288h32.5v2.5H208Z" transform="translate(-114.295 -216)" fill="#000"/>
    <path id="Path_8774" data-name="Path 8774" d="M112,96h12.5v5H112Z" transform="translate(-33.295 -54)" fill="#000"/>
    <path id="Path_8775" data-name="Path 8775" d="M107.25,400H96v7.5h3.75v-1.25a3.754,3.754,0,0,1,3.75-3.75H106a3.732,3.732,0,0,1,1.25.215Z" transform="translate(-19.795 -310.499)" fill="#000"/>
    <path id="Path_8776" data-name="Path 8776" d="M137.25,432a1.251,1.251,0,0,0-1.25,1.25v1.25h5v-1.25a1.251,1.251,0,0,0-1.25-1.25Z" transform="translate(-53.545 -337.499)" fill="#000"/>
    <path id="Path_8777" data-name="Path 8777" d="M97.371,32H72.539l.163,2.5H97.208Z" fill="#000"/>
    <path id="Path_8778" data-name="Path 8778" d="M97.376,464a3.756,3.756,0,0,0,3.535,2.5h8.754a6.224,6.224,0,0,1-1.128-2.5Z" transform="translate(-20.956 -364.499)" fill="#000"/>
  </g>
</svg>
