<svg width="58" height="67" viewBox="0 0 58 67" fill="none" xmlns="http://www.w3.org/2000/svg">
<mask id="path-1-inside-1_376_78" fill="white">
<path fill-rule="evenodd" clip-rule="evenodd" d="M51.106 23.61C51.3535 23.2926 51.8139 23.2354 52.1332 23.4813C52.4526 23.7272 52.5102 24.1846 52.2627 24.502C51.8944 24.9737 51.6843 25.577 51.6412 26.1974C51.598 26.8293 51.7246 27.4669 52.0239 27.9986C52.2224 28.3503 52.0958 28.7934 51.7419 28.9879C51.3909 29.1851 50.942 29.0593 50.7463 28.7077C50.3032 27.9272 50.119 27.0008 50.1794 26.1002C50.2427 25.1996 50.5536 24.3133 51.106 23.61ZM11.2911 23.9731L7.36628 60.7721H37.5507L33.6288 23.9731H11.2911ZM5.82682 61.4242L9.90121 23.2184C9.91559 22.8267 10.2379 22.5151 10.6349 22.5151H34.2841V22.518C34.6553 22.518 34.9718 22.7953 35.0121 23.1698L39.0836 61.3676C39.0922 61.4105 39.0951 61.4534 39.0951 61.4991C39.0951 61.9022 38.7671 62.2282 38.3613 62.2282H6.55122V62.2253C6.52532 62.2253 6.5023 62.2225 6.47641 62.2225C6.07645 62.1824 5.78583 61.825 5.82611 61.4248L5.82682 61.4242ZM22.4582 33.6711C24.8752 33.6711 27.0649 34.646 28.6504 36.2185C30.2358 37.7939 31.2142 39.9668 31.2142 42.3713C31.2142 44.7729 30.233 46.9487 28.6504 48.524C27.0649 50.0993 24.8781 51.0714 22.4582 51.0714C20.0412 51.0714 17.8515 50.0965 16.266 48.524C14.6806 46.9487 13.7022 44.7757 13.7022 42.3713C13.7022 39.9697 14.6834 37.7939 16.266 36.2185C17.8515 34.6461 20.0412 33.6711 22.4582 33.6711ZM27.6145 37.2506C28.9324 38.5601 29.7495 40.3727 29.7495 42.3713C29.7495 44.3726 28.9323 46.1824 27.6145 47.4919C26.2966 48.8014 24.4724 49.6133 22.4611 49.6133C20.4469 49.6133 18.6255 48.8042 17.3076 47.4919C15.9897 46.1824 15.1726 44.3698 15.1726 42.3713C15.1726 40.3699 15.9898 38.5601 17.3076 37.2506C18.6255 35.9411 20.4497 35.1292 22.4611 35.1292C24.4724 35.1292 26.2966 35.9384 27.6145 37.2506ZM48.5735 30.7691C48.7404 30.9578 48.9159 31.1322 49.1001 31.2923C50.087 32.1529 51.2811 32.5789 52.484 32.576C53.6867 32.5703 54.8837 32.1357 55.8765 31.2723C56.0491 31.1236 56.2131 30.9607 56.3714 30.7834C56.3858 30.7691 56.4001 30.7519 56.4145 30.7348C57.4648 29.5454 57.9942 27.9844 58 26.4319C58.0057 24.8794 57.4878 23.324 56.4433 22.1432L53.9054 19.2698C53.845 19.2041 53.7817 19.1412 53.7184 19.0811C53.3587 18.7666 52.9213 18.6122 52.4782 18.6151C52.0351 18.6179 51.5948 18.7752 51.2351 19.0897C51.169 19.1469 51.1028 19.2126 51.0452 19.2813L48.5448 22.1146C47.4945 23.304 46.9651 24.8651 46.9594 26.4175C46.9536 27.97 47.4715 29.5254 48.5161 30.7062L48.5735 30.7691ZM49.6152 29.7484L49.6727 29.8142C49.7964 29.9543 49.9259 30.0829 50.0612 30.2001C50.7719 30.8206 51.6294 31.1265 52.4811 31.1236C53.3357 31.1207 54.1932 30.8062 54.9125 30.1772C55.0391 30.0686 55.16 29.9485 55.278 29.8198C56.1153 28.7105 56.5325 27.8699 56.5382 26.4318C56.544 25.2167 56.144 24.0073 55.3441 23.0981L52.8091 20.2247C52.7919 20.2076 52.7746 20.1876 52.7573 20.1733C52.6739 20.0989 52.576 20.0646 52.4782 20.0646C52.3833 20.0646 52.2854 20.1046 52.1991 20.179C52.1818 20.1961 52.1617 20.2133 52.1444 20.2333L49.644 23.0667C48.8325 23.9873 48.424 25.1996 48.4182 26.4146C48.4153 27.6298 48.8124 28.8392 49.6152 29.7484ZM8.70708 17.7433C7.58491 17.7433 6.60654 18.1322 5.86992 18.7583C5.09013 19.4245 4.58658 20.3565 4.47727 21.3829L0.0172652 63.2088C0.00575553 63.3203 0 63.4204 0 63.509C0 64.4382 0.451753 65.2702 1.17108 65.8906C1.84152 66.471 2.7565 66.8656 3.74062 66.9714C3.91902 66.9914 4.09166 67 4.24993 67H40.675C40.8332 67 41.0059 66.9914 41.1843 66.9714C42.1654 66.8685 43.0805 66.4711 43.7538 65.8906C44.4703 65.2702 44.9249 64.4382 44.9249 63.509C44.9249 63.4204 44.9191 63.3175 44.9076 63.206L40.4476 21.383C40.3383 20.3566 39.8347 19.4245 39.055 18.7584C38.3183 18.1322 37.34 17.7434 36.2178 17.7434H31.7089V15.1617C31.7089 14.0495 31.2514 13.0403 30.5148 12.3084C29.7781 11.5764 28.7624 11.1218 27.6431 11.1218H24.9269V8.13125C24.9269 7.22776 25.111 6.41576 25.4045 5.83542C25.6232 5.40655 25.8678 5.1378 26.0836 5.1378H48.7375C48.9533 5.1378 49.2008 5.40656 49.4166 5.83542C49.7101 6.41295 49.8943 7.22776 49.8943 8.13125V11.1218H48.703C48.2714 11.1218 47.8772 11.2962 47.5952 11.5793C47.3103 11.8623 47.1348 12.2512 47.1348 12.68V14.5127C47.1348 14.9158 47.2902 15.2818 47.5463 15.5591C47.5607 15.5763 47.5779 15.5963 47.5952 15.6135C47.8801 15.8965 48.2714 16.0709 48.703 16.0709H56.2563C56.6879 16.0709 57.0821 15.8965 57.3641 15.6135L57.3612 15.6106L57.3641 15.6077C57.649 15.3247 57.8245 14.9358 57.8245 14.5098V12.6772C57.8245 12.2483 57.649 11.8566 57.3641 11.5764C57.0792 11.2934 56.6879 11.119 56.2563 11.119L55.065 11.1218V6.28995C55.065 4.56019 54.3543 2.98772 53.2062 1.84694C52.0582 0.706162 50.4756 0 48.7347 0H26.0808C24.3399 0 22.7574 0.706192 21.6093 1.84694C20.4641 2.98772 19.7505 4.56019 19.7505 6.28995V11.1218H17.2788C16.1595 11.1218 15.1438 11.5764 14.4072 12.3084C13.6705 13.0403 13.213 14.0495 13.213 15.1617V17.7434L8.70708 17.7433ZM36.2124 19.1986C36.9691 19.1986 37.6195 19.4531 38.1 19.8619C38.5978 20.2879 38.9201 20.8798 38.9891 21.5316L43.4491 63.3597C43.452 63.3997 43.4548 63.4483 43.4548 63.5084C43.4548 63.9887 43.1959 64.4404 42.7902 64.7921C42.3355 65.1838 41.7112 65.4526 41.0349 65.524C40.9285 65.5355 40.8076 65.5412 40.6753 65.5412H4.25024C4.11787 65.5412 3.99702 65.5355 3.89056 65.524C3.21437 65.4526 2.58999 65.1838 2.13535 64.7921C1.72675 64.4404 1.47067 63.9887 1.47067 63.5084C1.47067 63.4483 1.47354 63.3969 1.47642 63.3568L5.93642 21.5309C6.00548 20.8819 6.32775 20.2873 6.82552 19.8613C7.30605 19.4524 7.95638 19.198 8.71311 19.198L36.2124 19.1986ZM14.6811 17.7433V15.1616C14.6811 14.4526 14.9745 13.8064 15.4465 13.3375C15.9184 12.8686 16.5686 12.577 17.2823 12.577H27.6435C28.3571 12.577 29.0075 12.8686 29.4793 13.3375C29.9512 13.8064 30.2448 14.4525 30.2448 15.1616V17.7433H14.6811ZM21.2157 11.1217V6.2898C21.2157 4.96033 21.7624 3.75382 22.6457 2.87602C23.5262 2.00115 24.7434 1.45506 26.0814 1.45506H48.7354C50.0733 1.45506 51.2876 1.99829 52.171 2.87602C53.0515 3.75089 53.6011 4.96033 53.6011 6.2898V11.1217H51.3624V8.1311C51.3624 7.00174 51.1179 5.95531 50.7236 5.18342C50.2546 4.25995 49.5526 3.68524 48.7382 3.68524L26.0813 3.67952C25.267 3.67952 24.5649 4.25705 24.0959 5.1777C23.7017 5.94966 23.4571 6.99895 23.4571 8.12538V11.116L21.2157 11.1217ZM56.2566 12.577C56.2854 12.577 56.3084 12.5884 56.3285 12.6084C56.3487 12.6284 56.3602 12.6513 56.3602 12.6799V14.5126C56.3602 14.5412 56.3487 14.5669 56.3314 14.5869L56.3285 14.584C56.3084 14.6041 56.2854 14.6155 56.2566 14.6155H48.7033C48.6745 14.6155 48.6515 14.6041 48.6314 14.584L48.6199 14.5726C48.6084 14.5554 48.6026 14.5354 48.6026 14.5126V12.6799C48.6026 12.6513 48.6141 12.6284 48.6343 12.6084C48.6544 12.5884 48.6774 12.577 48.7062 12.577L56.2566 12.577Z"/>
</mask>
<path fill-rule="evenodd" clip-rule="evenodd" d="M51.106 23.61C51.3535 23.2926 51.8139 23.2354 52.1332 23.4813C52.4526 23.7272 52.5102 24.1846 52.2627 24.502C51.8944 24.9737 51.6843 25.577 51.6412 26.1974C51.598 26.8293 51.7246 27.4669 52.0239 27.9986C52.2224 28.3503 52.0958 28.7934 51.7419 28.9879C51.3909 29.1851 50.942 29.0593 50.7463 28.7077C50.3032 27.9272 50.119 27.0008 50.1794 26.1002C50.2427 25.1996 50.5536 24.3133 51.106 23.61ZM11.2911 23.9731L7.36628 60.7721H37.5507L33.6288 23.9731H11.2911ZM5.82682 61.4242L9.90121 23.2184C9.91559 22.8267 10.2379 22.5151 10.6349 22.5151H34.2841V22.518C34.6553 22.518 34.9718 22.7953 35.0121 23.1698L39.0836 61.3676C39.0922 61.4105 39.0951 61.4534 39.0951 61.4991C39.0951 61.9022 38.7671 62.2282 38.3613 62.2282H6.55122V62.2253C6.52532 62.2253 6.5023 62.2225 6.47641 62.2225C6.07645 62.1824 5.78583 61.825 5.82611 61.4248L5.82682 61.4242ZM22.4582 33.6711C24.8752 33.6711 27.0649 34.646 28.6504 36.2185C30.2358 37.7939 31.2142 39.9668 31.2142 42.3713C31.2142 44.7729 30.233 46.9487 28.6504 48.524C27.0649 50.0993 24.8781 51.0714 22.4582 51.0714C20.0412 51.0714 17.8515 50.0965 16.266 48.524C14.6806 46.9487 13.7022 44.7757 13.7022 42.3713C13.7022 39.9697 14.6834 37.7939 16.266 36.2185C17.8515 34.6461 20.0412 33.6711 22.4582 33.6711ZM27.6145 37.2506C28.9324 38.5601 29.7495 40.3727 29.7495 42.3713C29.7495 44.3726 28.9323 46.1824 27.6145 47.4919C26.2966 48.8014 24.4724 49.6133 22.4611 49.6133C20.4469 49.6133 18.6255 48.8042 17.3076 47.4919C15.9897 46.1824 15.1726 44.3698 15.1726 42.3713C15.1726 40.3699 15.9898 38.5601 17.3076 37.2506C18.6255 35.9411 20.4497 35.1292 22.4611 35.1292C24.4724 35.1292 26.2966 35.9384 27.6145 37.2506ZM48.5735 30.7691C48.7404 30.9578 48.9159 31.1322 49.1001 31.2923C50.087 32.1529 51.2811 32.5789 52.484 32.576C53.6867 32.5703 54.8837 32.1357 55.8765 31.2723C56.0491 31.1236 56.2131 30.9607 56.3714 30.7834C56.3858 30.7691 56.4001 30.7519 56.4145 30.7348C57.4648 29.5454 57.9942 27.9844 58 26.4319C58.0057 24.8794 57.4878 23.324 56.4433 22.1432L53.9054 19.2698C53.845 19.2041 53.7817 19.1412 53.7184 19.0811C53.3587 18.7666 52.9213 18.6122 52.4782 18.6151C52.0351 18.6179 51.5948 18.7752 51.2351 19.0897C51.169 19.1469 51.1028 19.2126 51.0452 19.2813L48.5448 22.1146C47.4945 23.304 46.9651 24.8651 46.9594 26.4175C46.9536 27.97 47.4715 29.5254 48.5161 30.7062L48.5735 30.7691ZM49.6152 29.7484L49.6727 29.8142C49.7964 29.9543 49.9259 30.0829 50.0612 30.2001C50.7719 30.8206 51.6294 31.1265 52.4811 31.1236C53.3357 31.1207 54.1932 30.8062 54.9125 30.1772C55.0391 30.0686 55.16 29.9485 55.278 29.8198C56.1153 28.7105 56.5325 27.8699 56.5382 26.4318C56.544 25.2167 56.144 24.0073 55.3441 23.0981L52.8091 20.2247C52.7919 20.2076 52.7746 20.1876 52.7573 20.1733C52.6739 20.0989 52.576 20.0646 52.4782 20.0646C52.3833 20.0646 52.2854 20.1046 52.1991 20.179C52.1818 20.1961 52.1617 20.2133 52.1444 20.2333L49.644 23.0667C48.8325 23.9873 48.424 25.1996 48.4182 26.4146C48.4153 27.6298 48.8124 28.8392 49.6152 29.7484ZM8.70708 17.7433C7.58491 17.7433 6.60654 18.1322 5.86992 18.7583C5.09013 19.4245 4.58658 20.3565 4.47727 21.3829L0.0172652 63.2088C0.00575553 63.3203 0 63.4204 0 63.509C0 64.4382 0.451753 65.2702 1.17108 65.8906C1.84152 66.471 2.7565 66.8656 3.74062 66.9714C3.91902 66.9914 4.09166 67 4.24993 67H40.675C40.8332 67 41.0059 66.9914 41.1843 66.9714C42.1654 66.8685 43.0805 66.4711 43.7538 65.8906C44.4703 65.2702 44.9249 64.4382 44.9249 63.509C44.9249 63.4204 44.9191 63.3175 44.9076 63.206L40.4476 21.383C40.3383 20.3566 39.8347 19.4245 39.055 18.7584C38.3183 18.1322 37.34 17.7434 36.2178 17.7434H31.7089V15.1617C31.7089 14.0495 31.2514 13.0403 30.5148 12.3084C29.7781 11.5764 28.7624 11.1218 27.6431 11.1218H24.9269V8.13125C24.9269 7.22776 25.111 6.41576 25.4045 5.83542C25.6232 5.40655 25.8678 5.1378 26.0836 5.1378H48.7375C48.9533 5.1378 49.2008 5.40656 49.4166 5.83542C49.7101 6.41295 49.8943 7.22776 49.8943 8.13125V11.1218H48.703C48.2714 11.1218 47.8772 11.2962 47.5952 11.5793C47.3103 11.8623 47.1348 12.2512 47.1348 12.68V14.5127C47.1348 14.9158 47.2902 15.2818 47.5463 15.5591C47.5607 15.5763 47.5779 15.5963 47.5952 15.6135C47.8801 15.8965 48.2714 16.0709 48.703 16.0709H56.2563C56.6879 16.0709 57.0821 15.8965 57.3641 15.6135L57.3612 15.6106L57.3641 15.6077C57.649 15.3247 57.8245 14.9358 57.8245 14.5098V12.6772C57.8245 12.2483 57.649 11.8566 57.3641 11.5764C57.0792 11.2934 56.6879 11.119 56.2563 11.119L55.065 11.1218V6.28995C55.065 4.56019 54.3543 2.98772 53.2062 1.84694C52.0582 0.706162 50.4756 0 48.7347 0H26.0808C24.3399 0 22.7574 0.706192 21.6093 1.84694C20.4641 2.98772 19.7505 4.56019 19.7505 6.28995V11.1218H17.2788C16.1595 11.1218 15.1438 11.5764 14.4072 12.3084C13.6705 13.0403 13.213 14.0495 13.213 15.1617V17.7434L8.70708 17.7433ZM36.2124 19.1986C36.9691 19.1986 37.6195 19.4531 38.1 19.8619C38.5978 20.2879 38.9201 20.8798 38.9891 21.5316L43.4491 63.3597C43.452 63.3997 43.4548 63.4483 43.4548 63.5084C43.4548 63.9887 43.1959 64.4404 42.7902 64.7921C42.3355 65.1838 41.7112 65.4526 41.0349 65.524C40.9285 65.5355 40.8076 65.5412 40.6753 65.5412H4.25024C4.11787 65.5412 3.99702 65.5355 3.89056 65.524C3.21437 65.4526 2.58999 65.1838 2.13535 64.7921C1.72675 64.4404 1.47067 63.9887 1.47067 63.5084C1.47067 63.4483 1.47354 63.3969 1.47642 63.3568L5.93642 21.5309C6.00548 20.8819 6.32775 20.2873 6.82552 19.8613C7.30605 19.4524 7.95638 19.198 8.71311 19.198L36.2124 19.1986ZM14.6811 17.7433V15.1616C14.6811 14.4526 14.9745 13.8064 15.4465 13.3375C15.9184 12.8686 16.5686 12.577 17.2823 12.577H27.6435C28.3571 12.577 29.0075 12.8686 29.4793 13.3375C29.9512 13.8064 30.2448 14.4525 30.2448 15.1616V17.7433H14.6811ZM21.2157 11.1217V6.2898C21.2157 4.96033 21.7624 3.75382 22.6457 2.87602C23.5262 2.00115 24.7434 1.45506 26.0814 1.45506H48.7354C50.0733 1.45506 51.2876 1.99829 52.171 2.87602C53.0515 3.75089 53.6011 4.96033 53.6011 6.2898V11.1217H51.3624V8.1311C51.3624 7.00174 51.1179 5.95531 50.7236 5.18342C50.2546 4.25995 49.5526 3.68524 48.7382 3.68524L26.0813 3.67952C25.267 3.67952 24.5649 4.25705 24.0959 5.1777C23.7017 5.94966 23.4571 6.99895 23.4571 8.12538V11.116L21.2157 11.1217ZM56.2566 12.577C56.2854 12.577 56.3084 12.5884 56.3285 12.6084C56.3487 12.6284 56.3602 12.6513 56.3602 12.6799V14.5126C56.3602 14.5412 56.3487 14.5669 56.3314 14.5869L56.3285 14.584C56.3084 14.6041 56.2854 14.6155 56.2566 14.6155H48.7033C48.6745 14.6155 48.6515 14.6041 48.6314 14.584L48.6199 14.5726C48.6084 14.5554 48.6026 14.5354 48.6026 14.5126V12.6799C48.6026 12.6513 48.6141 12.6284 48.6343 12.6084C48.6544 12.5884 48.6774 12.577 48.7062 12.577L56.2566 12.577Z" fill="#233362" stroke="#233362" stroke-width="412" mask="url(#path-1-inside-1_376_78)"/>
</svg>
