<svg id="Group_2810" data-name="Group 2810" xmlns="http://www.w3.org/2000/svg" width="31.289" height="31.289" viewBox="0 0 31.289 31.289">
  <path id="Path_8497" data-name="Path 8497" d="M30.745,113.209l-7.992-3.557a.917.917,0,0,0-1.029.2c-.531.545-1.784,1.823-2.551,2.576a35.032,35.032,0,0,1-4.753-4.107l-.013-.013a34.064,34.064,0,0,1-4.04-4.684c.925-.934,2.555-2.542,2.575-2.562a.916.916,0,0,0,.194-1.025L9.6,92.059a.916.916,0,0,0-1.071-.514L2.373,93.165a3.294,3.294,0,0,0-2.2,4.3,36.275,36.275,0,0,0,9.34,15.767l.005.005.032.032.005,0a35.607,35.607,0,0,0,15.767,9.34,3.3,3.3,0,0,0,4.3-2.2l1.637-6.133A.917.917,0,0,0,30.745,113.209Zm-2.9,6.739,0,.011a1.478,1.478,0,0,1-1.985.9,33.482,33.482,0,0,1-15.017-8.89l-.029-.03A34.378,34.378,0,0,1,1.923,96.927a1.478,1.478,0,0,1,.9-1.985l.009,0,5.4-1.423L11.2,100.2c-.759.751-2.244,2.225-2.682,2.688a.917.917,0,0,0-.1,1.134,34.645,34.645,0,0,0,4.7,5.587,35.328,35.328,0,0,0,5.651,4.758.917.917,0,0,0,1.114-.084c.483-.433,1.958-1.93,2.709-2.7l6.694,2.98Z" transform="translate(0 -91.498)" fill="#000"/>
  <path id="Path_8498" data-name="Path 8498" d="M288.992,93.028a13.8,13.8,0,0,1,13.811,13.75.917.917,0,1,0,1.833,0,15.632,15.632,0,0,0-15.644-15.583.917.917,0,0,0,0,1.833Z" transform="translate(-273.347 -91.195)" fill="#000"/>
  <path id="Path_8499" data-name="Path 8499" d="M288.992,164.747a10.1,10.1,0,0,1,10.083,10.083.917.917,0,1,0,1.833,0,11.93,11.93,0,0,0-11.917-11.917.917.917,0,0,0,0,1.833Z" transform="translate(-273.347 -159.247)" fill="#000"/>
  <path id="Path_8500" data-name="Path 8500" d="M288.992,236.461a6.424,6.424,0,0,1,6.417,6.417.917.917,0,1,0,1.833,0,8.259,8.259,0,0,0-8.25-8.25.917.917,0,0,0,0,1.833Z" transform="translate(-273.347 -227.295)" fill="#000"/>
</svg>
