<svg xmlns="http://www.w3.org/2000/svg" width="72" height="70.297" viewBox="0 0 72 70.297">
  <g id="Group_2851" data-name="Group 2851" transform="translate(-1.067 -1.774)">
    <path id="Path_8779" data-name="Path 8779" d="M16.533,26.941H29.059L25.8,12.8h-5.73l-3.532,4.672Z" transform="translate(21.819 15.555)" fill="#000"/>
    <path id="Path_8780" data-name="Path 8780" d="M22.8,26.941V20.874L20.84,23.463a1.993,1.993,0,0,1-1.673.909,2.025,2.025,0,0,1-.668-.113A2,2,0,0,1,17.156,22.1l1.8-9.3H13.533L10.271,26.941Z" transform="translate(12.985 15.555)" fill="#000"/>
    <path id="Path_8781" data-name="Path 8781" d="M10.133,31.152v1.287H38.421V31.152a1.285,1.285,0,0,0-1.285-1.285H11.42A1.285,1.285,0,0,0,10.133,31.152Z" transform="translate(12.79 39.632)" fill="#000"/>
    <path id="Path_8782" data-name="Path 8782" d="M36.693,19.733H23.07l3.264,14.144h14.4a1.282,1.282,0,0,0,1.184-1.786L36.693,19.735Z" transform="translate(31.041 25.336)" fill="#000"/>
    <path id="Path_8783" data-name="Path 8783" d="M31.025,12.8H21.471l3.262,14.141H37.859L32.206,13.583a1.289,1.289,0,0,0-1.181-.783Z" transform="translate(28.785 15.555)" fill="#000"/>
    <path id="Path_8784" data-name="Path 8784" d="M29.655,19.733H16.533V33.877H32.919Z" transform="translate(21.819 25.336)" fill="#000"/>
    <path id="Path_8785" data-name="Path 8785" d="M24.58,16.783a1.291,1.291,0,0,1-.991-.465,1.315,1.315,0,0,1-.27-1.066L25.932,1.774,11.74,20.554l.051.087h7.647a1.292,1.292,0,0,1,.993.465,1.306,1.306,0,0,1,.27,1.066L18.088,35.65,32.275,16.877l-7.7-.1Z" transform="translate(15.057 0)" fill="#000"/>
    <path id="Path_8786" data-name="Path 8786" d="M16.857,26.941,20.121,12.8H10.564a1.291,1.291,0,0,0-1.179.779L3.73,26.941Z" transform="translate(3.757 15.555)" fill="#000"/>
    <path id="Path_8787" data-name="Path 8787" d="M1.171,32.087a1.288,1.288,0,0,0,1.184,1.791h14.4l3.262-14.146H6.4L1.171,32.087Z" transform="translate(0 25.334)" fill="#000"/>
    <path id="Path_8788" data-name="Path 8788" d="M25.056,19.733H11.934L8.67,33.877H25.056Z" transform="translate(10.726 25.336)" fill="#000"/>
    <path id="Path_8789" data-name="Path 8789" d="M12.8,26.666H28.229v5.145H12.8Z" transform="translate(16.553 35.116)" fill="#000"/>
  </g>
</svg>
