<svg width="58" height="52" viewBox="0 0 58 52" fill="none" xmlns="http://www.w3.org/2000/svg">
<path fill-rule="evenodd" clip-rule="evenodd" d="M29.9977 28.8376H33.5844C33.7311 28.8376 33.8667 28.9127 33.9414 29.0333C34.0161 29.154 34.0189 29.3041 33.9525 29.4302C32.9921 31.1675 30.1665 36.2832 28.7827 38.7875C28.6942 38.9511 28.5005 39.0315 28.315 38.9886C28.1296 38.943 28.0023 38.7821 28.0023 38.5998V32.1624H24.4156C24.2689 32.1624 24.1333 32.0873 24.0586 31.9667C23.9839 31.846 23.9811 31.6959 24.0475 31.5698C25.0079 29.8325 27.8335 24.7168 29.2173 22.2125C29.3058 22.0489 29.4995 21.9685 29.685 22.0114C29.8704 22.057 29.9977 22.2179 29.9977 22.4002V28.8376Z" fill="#233362"/>
<path fill-rule="evenodd" clip-rule="evenodd" d="M34.5451 3L42.1096 16.3845L43.052 15.8295C43.2718 15.7004 43.5447 15.7159 43.7468 15.8734C43.9489 16.0283 44.0424 16.2916 43.9817 16.542L42.5492 22.5075C42.5088 22.6779 42.4001 22.825 42.251 22.9128C42.102 23.0005 41.9251 23.0238 41.7584 22.9747L35.985 21.2581C35.7425 21.1858 35.5656 20.9716 35.5353 20.716C35.505 20.4604 35.6262 20.21 35.8461 20.081L36.7885 19.526L31 9.28043L34.5474 3.00251L34.5451 3Z" fill="#233362"/>
<path fill-rule="evenodd" clip-rule="evenodd" d="M1.00041 40.9976L9.19129 28.2971L8.17085 27.7704C7.93283 27.648 7.80151 27.4104 7.83434 27.1679C7.86717 26.9254 8.05867 26.7221 8.32131 26.6535L14.5727 25.0246C14.7506 24.978 14.9448 24.9976 15.1062 25.0833C15.2676 25.1666 15.3853 25.3063 15.429 25.4679L16.9802 31.1286C17.0459 31.3662 16.9447 31.616 16.7258 31.763C16.5069 31.91 16.2115 31.9271 15.9735 31.8046L14.953 31.278L8.68522 41H1L1.00041 40.9976Z" fill="#233362"/>
<path fill-rule="evenodd" clip-rule="evenodd" d="M51 50.206H35.6767V51.3405C35.6767 51.6043 35.5232 51.8444 35.2877 51.9473C35.0522 52.0502 34.7784 52 34.5941 51.818L30.1971 47.4755C30.0717 47.3515 30 47.18 30 47.0006C30 46.8212 30.0717 46.6497 30.1971 46.5257L34.5941 42.1832C34.7784 42.0011 35.0522 41.9484 35.2877 42.0539C35.5232 42.1568 35.6767 42.3969 35.6767 42.6607V43.7951H47.4062L50.9996 50.2113L51 50.206Z" fill="#233362"/>
<path fill-rule="evenodd" clip-rule="evenodd" d="M33 0.0827483L21.8045 18.6765C21.715 18.8247 21.5659 18.9339 21.3923 18.9781C21.2188 19.0223 21.0344 18.9989 20.8772 18.9131L16.3382 16.4014C16.0129 16.222 15.9044 15.8242 16.0915 15.5148L25.24 0.322419C25.2997 0.221016 25.3865 0.140408 25.4868 0.0858061C25.5871 0.0286036 25.7037 0 25.8257 0H32.6585C32.7805 0 32.8971 0.0312009 32.9974 0.0858061L33 0.0827483Z" fill="#233362"/>
<path fill-rule="evenodd" clip-rule="evenodd" d="M0 44H21.3535C21.5242 44 21.6897 44.0641 21.8112 44.1801C21.9328 44.2961 22 44.4515 22 44.6168V49.3832C22 49.7237 21.7104 50 21.3535 50H3.90539C3.78901 50 3.67781 49.9704 3.58212 49.9186C3.48644 49.8643 3.40369 49.7878 3.34679 49.6941L0.08829 44.3109C0.0313956 44.2147 0.00294629 44.1086 0.00294629 44.0025L0 44Z" fill="#233362"/>
<path fill-rule="evenodd" clip-rule="evenodd" d="M54.5065 50L44.0843 31.4752C44.001 31.3275 43.9783 31.1488 44.0212 30.983C44.0641 30.8172 44.1701 30.6747 44.314 30.5892L48.5394 28.0868C48.8423 27.9081 49.226 28.0143 49.4001 28.3226L57.9167 43.4586C57.9722 43.5597 58 43.6711 58 43.7824C58 43.8938 57.9722 44.0052 57.9167 44.1063L54.7363 49.7587C54.6808 49.8597 54.6 49.94 54.5066 49.9944L54.5065 50Z" fill="#233362"/>
</svg>
