<svg xmlns="http://www.w3.org/2000/svg" width="37.401" height="70.416" viewBox="0 0 37.401 70.416">
  <g id="Group_2839" data-name="Group 2839" transform="translate(-120.029)">
    <path id="Path_8710" data-name="Path 8710" d="M174.949,120.9l-27.73,10.216-.779,6.228,29.219-10.765Z" transform="translate(-22.779 -104.273)" fill="#000"/>
    <path id="Path_8711" data-name="Path 8711" d="M308.769,275.594l-1.342-10.734-10.253,3.778Z" transform="translate(-152.782 -228.432)" fill="#000"/>
    <path id="Path_8712" data-name="Path 8712" d="M196.857,308.933l26.834,13.417-.79-6.321-17.236-10.341Z" transform="translate(-66.262 -263.646)" fill="#000"/>
    <path id="Path_8713" data-name="Path 8713" d="M121.726,344.873l-1.7,13.577h34.994l-29.761-14.88Z" transform="translate(0 -296.318)" fill="#000"/>
    <path id="Path_8714" data-name="Path 8714" d="M168.388,198.56l-.71-5.68-30.325,11.172-.779,6.228,3.208-1.182Z" transform="translate(-14.27 -166.353)" fill="#000"/>
    <path id="Path_8715" data-name="Path 8715" d="M182.416,60.235H158.049l-1.742,13.933,26.624-9.809Z" transform="translate(-31.289 -51.951)" fill="#000"/>
    <path id="Path_8716" data-name="Path 8716" d="M197.323,0h16.568V4.142H197.323Z" transform="translate(-66.664)" fill="#000"/>
    <path id="Path_8717" data-name="Path 8717" d="M167.205,481.883h24.853v4.142H167.205Z" transform="translate(-40.688 -415.609)" fill="#000"/>
  </g>
</svg>
