<svg width="63" height="63" viewBox="0 0 63 63" fill="none" xmlns="http://www.w3.org/2000/svg">
<path d="M19.7118 13.9979H25.8708C26.2258 13.9979 26.5037 14.2912 26.4883 14.6925C26.3493 17.5787 28.7728 20.0328 31.7365 19.9094C34.515 19.7859 36.6452 17.4244 36.5217 14.6616C36.5063 14.322 36.7687 14.0288 37.1392 14.0133H43.2982C43.468 14.0133 43.6224 14.0905 43.7304 14.1985L57.484 26.5617C57.731 26.7932 57.7619 27.1791 57.5303 27.426L51.5102 34.1246C51.2787 34.3716 50.8928 34.4025 50.6458 34.1709L43.9156 28.1206V48.3708C43.9156 48.7103 43.6378 48.9882 43.2982 48.9882H19.7118C19.3722 48.9882 19.0943 48.7103 19.0943 48.3708V28.1206L12.3642 34.1709C12.1172 34.4025 11.7159 34.387 11.4998 34.1246L5.47968 27.426C5.24814 27.1791 5.27901 26.7778 5.52599 26.5617L19.295 14.1677C19.4031 14.0596 19.5574 14.0133 19.7118 13.9979ZM35.9506 4.59822C34.0983 4.28952 33.5271 1.89716 35.0553 0.785867C35.503 0.46174 36.0587 0.322828 36.6298 0.415436C52.6216 3.02389 64.0907 17.4861 62.9175 33.7542C62.7632 35.8687 62.4081 37.9679 61.837 39.9898L62.1766 40.1133C62.6242 40.2676 62.7477 40.8541 62.3464 41.1782L58.7343 44.2652C58.3793 44.5584 57.8082 44.3886 57.731 43.8639L56.882 39.2026C56.8048 38.7396 57.2679 38.3537 57.7001 38.5081L57.839 38.5544C61.0497 26.5771 55.8015 13.9053 44.9344 7.74688C42.1868 6.21885 39.1613 5.13843 35.9506 4.59822ZM35.5647 3.03932C35.7036 3.22454 35.9043 3.34801 36.1358 3.39432C49.8277 5.63233 59.9692 17.5324 59.9692 31.5008C59.9692 33.5536 59.7531 35.6064 59.3055 37.5974L58.7961 39.5885C58.7035 39.8354 58.4873 39.9898 58.2404 39.9898L58.7189 42.6291L60.741 40.9159C60.4323 40.7461 60.386 40.4528 60.4786 40.1287C64.492 26.7006 58.7189 12.1457 46.3854 5.15386C43.3445 3.42519 39.9794 2.22128 36.4137 1.63477C35.6419 1.51129 35.1016 2.4065 35.5647 3.03932ZM28.8191 2.73063L25.2071 5.78668C24.852 6.07994 24.2809 5.91016 24.2037 5.38538L24.1728 5.24647C12.4259 8.50317 4.24479 19.2302 4.24479 31.5008C4.24479 34.8346 4.81593 37.9987 5.98907 41.1011C6.65283 42.8761 4.83136 44.543 3.13339 43.7713C2.63943 43.5552 2.23809 43.1384 2.02199 42.5828C-3.16455 28.8151 1.86763 13.1953 14.3555 5.07669C17.1031 3.28627 20.1594 1.91259 23.401 1.04826L23.3393 0.724128C23.2467 0.261089 23.7097 -0.109341 24.142 0.0295702L28.6339 1.63477C29.1278 1.81999 29.2204 2.43737 28.8191 2.73063ZM26.2413 3.30171L27.2446 2.4528L24.744 1.5576C24.7285 1.89716 24.497 2.0515 24.1883 2.12868C9.78636 5.69407 0.0307287 19.3383 1.37367 34.2018C1.62065 36.9183 2.22266 39.6039 3.1797 42.1506C3.45755 42.8915 4.49177 42.9224 4.81593 42.1969C4.90854 41.9808 4.92398 41.7493 4.8468 41.5178C0.169654 29.0929 4.69244 14.9703 15.9608 7.6234C18.5541 5.92559 21.4406 4.64452 24.5279 3.87279C24.8057 3.79562 25.0836 3.93453 25.2225 4.16605L26.2413 3.30171ZM7.84141 48.1238L12.3333 49.729C12.781 49.8834 12.9045 50.4699 12.5031 50.8094L12.3796 50.9175C23.7715 62.1539 42.3875 61.1969 52.5753 48.8029C53.7639 47.3521 56.1256 48.0621 56.3109 49.9451C56.3572 50.4853 56.2028 51.041 55.8478 51.4886C43.9619 65.9354 22.2588 66.9232 9.13804 53.6648L8.89107 53.8809C8.53604 54.1742 7.9649 54.0044 7.88772 53.4796L7.03873 48.8184C6.94611 48.3399 7.4092 47.9695 7.84141 48.1238ZM9.67831 50.084L8.42798 49.6364L8.9065 52.2449C9.18435 52.106 9.44677 52.1986 9.66287 52.4301C10.8669 53.7575 12.8427 55.3781 14.3246 56.3968C27.2446 65.318 44.8727 62.8639 54.8907 50.686C55.3847 50.084 54.9062 49.1734 54.1189 49.2351C53.9028 49.2506 53.6713 49.374 53.5169 49.5592C44.1009 61.0117 27.507 63.3269 15.3588 54.9614C13.7998 53.8809 12.3488 52.6616 11.0213 51.3034C10.8051 51.0873 10.7743 50.7786 10.9286 50.5316L9.67831 50.084Z" fill="#233362"/>
</svg>
