<svg width="57" height="68" viewBox="0 0 57 68" fill="none" xmlns="http://www.w3.org/2000/svg">
<path d="M28.5001 50.8008C38.2491 50.8007 46.2723 42.9996 46.5206 33.2412L46.5265 32.7754C46.5265 26.5817 41.3556 16.8431 37.0079 9.76074L32.2775 6.38184C36.5184 12.8045 44.3888 25.6547 44.3888 32.7754L44.3839 33.1846C44.1661 41.7574 37.128 48.5927 28.5714 48.5928L28.5001 48.5908M28.5001 50.8008V48.5908M28.5001 50.8008V48.5908M28.5001 50.8008L28.0372 50.7949C18.4984 50.5527 10.724 42.8448 10.4796 33.2412L10.4738 32.7754C10.4738 26.6025 15.6865 16.8256 20.045 9.72266M28.5001 48.5908C19.9059 48.553 12.9051 41.6652 12.6876 33.1816L12.6827 32.7754C12.6827 25.6998 20.5318 12.7922 24.7491 6.3623M20.045 9.72266L24.7491 6.3623M20.045 9.72266L24.7491 6.3623M20.045 9.72266C20.2306 9.42028 20.4138 9.12228 20.5958 8.83008M24.7491 6.3623C24.8696 6.17867 24.9865 5.99992 25.1007 5.82715M25.1007 5.82715L20.5958 8.83008M25.1007 5.82715C26.1111 4.29924 26.8681 3.20637 27.1886 2.74805L25.9288 1.84766L25.4249 1.51172C24.6063 2.68146 22.7412 5.38545 20.5958 8.83008M25.1007 5.82715L20.5958 8.83008M29.7823 2.70703L29.8107 2.74805C30.1572 3.24312 31.0167 4.47746 32.1573 6.2002L36.8302 9.47168C34.5079 5.7075 32.4467 2.73379 31.5743 1.51172L29.7823 2.70703ZM29.7823 2.70703L31.545 1.47266C30.8309 0.491459 29.6661 3.31931e-05 28.5001 0M29.7823 2.70703C29.5109 2.30022 29.0457 2.08878 28.5714 2.06934L28.5001 2.06641M27.2179 2.70703L27.2003 2.73047L26.1398 1.98828L27.2179 2.70703ZM27.2179 2.70703C27.503 2.27987 28.0016 2.06641 28.5001 2.06641M27.2179 2.70703L25.4542 1.47266C26.1684 0.491158 27.3339 -3.31993e-05 28.5001 0M28.5001 2.06641V0M28.5001 2.06641V0" fill="#233362" stroke="#233362" stroke-width="300"/>
<path d="M40.8219 33.0949C40.6518 39.7853 35.1625 45.1008 28.4996 45.1008L28.3941 45.0959C27.9047 45.0426 27.4938 44.6238 27.4957 44.0793L27.5025 43.9611C27.5026 43.4152 27.9602 42.9363 28.4996 42.8967L28.5709 42.8928C33.9547 42.8928 38.4026 38.6131 38.6754 33.2932L38.6891 32.7746C38.6893 32.2048 39.1876 31.7063 39.7574 31.7062L39.8639 31.7121C40.388 31.7692 40.8256 32.2405 40.8258 32.7746L40.8219 33.0949Z" fill="#233362" stroke="#233362" stroke-width="300"/>
<path d="M6.41205 55.86C7.41408 56.5949 8.2913 57.2048 9.98236 57.278L10.331 57.2849M6.41205 55.86L5.17963 57.6052C6.3024 58.3984 7.56013 59.2997 9.8515 59.4108L10.331 59.4225M6.41205 55.86L5.14838 57.5827L5.12982 57.57M6.41205 55.86C6.40556 55.8555 6.39901 55.851 6.39252 55.8464L5.12982 57.57M10.331 57.2849V59.4225M10.331 57.2849V59.4225M10.331 57.2849C12.2547 57.2849 13.1812 56.6438 14.2499 55.86M10.331 59.4225C12.9305 59.4225 14.2829 58.452 15.4814 57.6052L14.2499 55.86M14.2499 55.86L15.5126 57.5827L15.5322 57.57M14.2499 55.86C14.2562 55.8556 14.2622 55.8508 14.2685 55.8464L15.5322 57.57M24.6523 55.86C25.6542 56.5948 26.531 57.2046 28.2216 57.278L28.5712 57.2849M24.6523 55.86L23.4199 57.6052C24.5426 58.3984 25.8003 59.2998 28.0917 59.4108L28.5712 59.4225M24.6523 55.86L23.3886 57.5827L23.3701 57.57M24.6523 55.86C24.6458 55.8555 24.6392 55.851 24.6328 55.8464L23.3701 57.57M28.5712 57.2849V59.4225M28.5712 57.2849V59.4225M28.5712 57.2849C30.2545 57.2849 31.1741 56.794 32.0937 56.1462L32.4902 55.86M28.5712 59.4225C31.1709 59.4225 32.5231 58.452 33.7216 57.6052L32.4902 55.86M23.3701 57.57L24.6015 55.8239C23.479 55.0308 22.2213 54.1302 19.9306 54.0192L19.4511 54.0075M23.3701 57.57C22.3681 56.8353 21.4914 56.2254 19.8007 56.152L19.4511 56.1452M32.4902 55.86L33.7529 57.5827L33.7724 57.57M32.4902 55.86C32.4964 55.8556 32.5024 55.8508 32.5087 55.8464L33.7724 57.57M42.8925 55.86C43.8944 56.5948 44.7711 57.2047 46.4619 57.278L46.8115 57.2849M42.8925 55.86L41.6601 57.6052C42.7829 58.3984 44.0405 59.2998 46.332 59.4108L46.8115 59.4225M42.8925 55.86L41.6288 57.5827L41.6103 57.57M42.8925 55.86C42.886 55.8555 42.8795 55.851 42.873 55.8464L41.6103 57.57M46.8115 57.2849V59.4225M46.8115 57.2849V59.4225M46.8115 57.2849C48.4947 57.2848 49.4143 56.794 50.3339 56.1462L50.7304 55.86M46.8115 59.4225C49.4111 59.4225 50.7633 58.452 51.9619 57.6052L50.7304 55.86M41.6103 57.57L42.8417 55.8239C41.7192 55.0308 40.4615 54.1303 38.1708 54.0192L37.6913 54.0075M41.6103 57.57C40.6084 56.8353 39.7315 56.2254 38.041 56.152L37.6913 56.1452M50.7304 55.86L51.9931 57.5827L52.0126 57.57M50.7304 55.86C50.7367 55.8556 50.7427 55.8508 50.749 55.8464L52.0126 57.57M5.12982 57.57L6.36127 55.8239C5.23878 55.0308 3.98112 54.1302 1.69037 54.0192L1.21088 54.0075C0.641169 54.0077 0.142745 54.5062 0.142517 55.0759L0.148376 55.1823C0.205308 55.7066 0.676706 56.145 1.21088 56.1452L1.56049 56.152C3.25127 56.2253 4.1279 56.8353 5.12982 57.57ZM15.5322 57.57C16.6009 56.7863 17.5275 56.1452 19.4511 56.1452M15.5322 57.57L14.2997 55.8239C15.4984 54.9771 16.8513 54.0075 19.4511 54.0075M33.7724 57.57C34.8411 56.7863 35.7676 56.1452 37.6913 56.1452M33.7724 57.57L32.54 55.8239C33.7386 54.9771 35.0916 54.0075 37.6913 54.0075M52.0126 57.57C53.0146 56.8353 53.8912 56.2254 55.582 56.152L55.9316 56.1452C56.4658 56.145 56.9371 55.7066 56.9941 55.1823L56.9999 55.0759C56.9997 54.5416 56.5614 54.0702 56.037 54.0134L55.9316 54.0075C53.3319 54.0075 51.9788 54.9771 50.7802 55.8239L52.0126 57.57ZM37.6913 54.0075V56.1452M37.6913 54.0075V56.1452M19.4511 56.1452V54.0075M19.4511 56.1452V54.0075" fill="#233362" stroke="#233362" stroke-width="300"/>
<path d="M6.26953 64.1251C7.27156 64.8599 8.14878 65.4698 9.83984 65.543L10.1885 65.5499M6.26953 64.1251L5.03711 65.8702C6.15988 66.6634 7.41761 67.5647 9.70898 67.6758L10.1885 67.6876M6.26953 64.1251L5.00586 65.8477L4.9873 65.835M6.26953 64.1251C6.26304 64.1205 6.2565 64.116 6.25 64.1114L4.9873 65.835M10.1885 65.5499V67.6876M10.1885 65.5499V67.6876M10.1885 65.5499C12.1122 65.5499 13.0387 64.9088 14.1074 64.1251M10.1885 67.6876C12.788 67.6876 14.1404 66.717 15.3389 65.8702L14.1074 64.1251M14.1074 64.1251L15.3701 65.8477L15.3896 65.835M14.1074 64.1251C14.1137 64.1207 14.1197 64.1158 14.126 64.1114L15.3896 65.835M24.5098 64.1251C25.5117 64.8598 26.3885 65.4696 28.0791 65.543L28.4287 65.5499M24.5098 64.1251L23.2773 65.8702C24.4001 66.6634 25.6578 67.5648 27.9492 67.6758L28.4287 67.6876M24.5098 64.1251L23.2461 65.8477L23.2275 65.835M24.5098 64.1251C24.5033 64.1205 24.4967 64.116 24.4902 64.1114L23.2275 65.835M28.4287 65.5499V67.6876M28.4287 65.5499V67.6876M28.4287 65.5499C30.112 65.5499 31.0316 65.059 31.9512 64.4112L32.3477 64.1251M28.4287 67.6876C31.0284 67.6876 32.3805 66.717 33.5791 65.8702L32.3477 64.1251M23.2275 65.835L24.459 64.0889C23.3365 63.2958 22.0788 62.3952 19.7881 62.2842L19.3086 62.2725M23.2275 65.835C22.2256 65.1003 21.3489 64.4904 19.6582 64.4171L19.3086 64.4102M32.3477 64.1251L33.6104 65.8477L33.6299 65.835M32.3477 64.1251C32.3539 64.1206 32.3599 64.1158 32.3662 64.1114L33.6299 65.835M42.75 64.1251C43.7519 64.8598 44.6286 65.4697 46.3193 65.543L46.6689 65.5499M42.75 64.1251L41.5176 65.8702C42.6403 66.6634 43.898 67.5648 46.1895 67.6758L46.6689 67.6876M42.75 64.1251L41.4863 65.8477L41.4678 65.835M42.75 64.1251C42.7435 64.1205 42.737 64.116 42.7305 64.1114L41.4678 65.835M46.6689 65.5499V67.6876M46.6689 65.5499V67.6876M46.6689 65.5499C48.3522 65.5498 49.2718 65.059 50.1914 64.4112L50.5879 64.1251M46.6689 67.6876C49.2686 67.6875 50.6208 66.717 51.8193 65.8702L50.5879 64.1251M41.4678 65.835L42.6992 64.0889C41.5767 63.2958 40.319 62.3953 38.0283 62.2842L37.5488 62.2725M41.4678 65.835C40.4659 65.1003 39.589 64.4904 37.8984 64.4171L37.5488 64.4102M50.5879 64.1251L51.8506 65.8477L51.8701 65.835M50.5879 64.1251C50.5942 64.1206 50.6002 64.1158 50.6064 64.1114L51.8701 65.835M4.9873 65.835L6.21875 64.0889C5.09626 63.2958 3.8386 62.3952 1.54785 62.2842L1.06836 62.2725C0.498652 62.2727 0.000227776 62.7712 0 63.3409L0.00585938 63.4473C0.0627912 63.9716 0.534189 64.41 1.06836 64.4102L1.41797 64.4171C3.10875 64.4904 3.98539 65.1003 4.9873 65.835ZM15.3896 65.835C16.4584 65.0513 17.3849 64.4103 19.3086 64.4102M15.3896 65.835L14.1572 64.0889C15.3558 63.2421 16.7088 62.2726 19.3086 62.2725M33.6299 65.835C34.6986 65.0513 35.6251 64.4102 37.5488 64.4102M33.6299 65.835L32.3975 64.0889C33.5961 63.2421 34.949 62.2725 37.5488 62.2725M51.8701 65.835C52.872 65.1003 53.7487 64.4904 55.4395 64.4171L55.7891 64.4102C56.3233 64.41 56.7946 63.9716 56.8516 63.4473L56.8574 63.3409C56.8572 62.8066 56.4189 62.3352 55.8945 62.2784L55.7891 62.2725C53.1894 62.2725 51.8363 63.2421 50.6377 64.0889L51.8701 65.835ZM37.5488 62.2725V64.4102M37.5488 62.2725V64.4102M19.3086 64.4102V62.2725M19.3086 64.4102V62.2725" fill="#233362" stroke="#233362" stroke-width="300"/>
</svg>
