<svg width="57" height="68" viewBox="0 0 57 68" fill="none" xmlns="http://www.w3.org/2000/svg">
<path d="M28.3421 50.5198C38.191 50.5198 46.2685 42.5132 46.2685 32.5934C46.2685 23.028 33.8688 4.95987 31.3889 1.48796C29.9718 -0.495987 26.7124 -0.495987 25.2953 1.48796C22.8154 5.03072 10.4157 23.0988 10.4157 32.5934C10.4157 42.5132 18.4932 50.5198 28.3421 50.5198ZM27.0667 2.6925C27.3501 2.26737 27.8461 2.0548 28.3421 2.0548C28.8381 2.0548 29.3341 2.26737 29.6175 2.6925C31.1054 4.81816 44.1428 23.4531 44.1428 32.5934C44.1428 41.3086 37.0573 48.3233 28.4129 48.3233C19.6977 48.3233 12.6122 41.2378 12.6122 32.5934C12.6122 23.5239 25.5787 4.81816 27.0667 2.6925Z" fill="#233362"/>
<path d="M28.3421 44.8514C35.0733 44.8514 40.6001 39.3955 40.6001 32.5934C40.6001 32.0266 40.1041 31.5306 39.5372 31.5306C38.9704 31.5306 38.4744 32.0266 38.4744 32.5934C38.4744 38.1201 33.9397 42.6549 28.413 42.6549C27.8461 42.6549 27.3501 43.1508 27.3501 43.7177C27.2793 44.3554 27.7753 44.8514 28.3421 44.8514Z" fill="#233362"/>
<path d="M1.20455 55.834C3.11764 55.834 4.03876 56.4717 5.10159 57.2511C6.30613 58.1013 7.65238 59.0933 10.274 59.0933C12.8957 59.0933 14.2419 58.1013 15.4465 57.2511C16.5093 56.4717 17.4304 55.834 19.3435 55.834C21.2566 55.834 22.1777 56.4717 23.2405 57.2511C24.4451 58.1013 25.7913 59.0933 28.413 59.0933C31.0346 59.0933 32.3809 58.1013 33.5854 57.2511C34.6482 56.4717 35.5693 55.834 37.4824 55.834C39.3955 55.834 40.3166 56.4717 41.3795 57.2511C42.584 58.1013 43.9303 59.0933 46.5519 59.0933C49.1736 59.0933 50.5198 58.1013 51.7243 57.2511C52.7872 56.4717 53.7083 55.834 55.6214 55.834C56.1882 55.834 56.6842 55.338 56.6842 54.7711C56.6842 54.2043 56.1882 53.7083 55.6214 53.7083C52.9997 53.7083 51.6535 54.7003 50.4489 55.5505C49.3861 56.33 48.465 56.9677 46.5519 56.9677C44.6388 56.9677 43.7177 56.33 42.6549 55.5505C41.4503 54.7003 40.1041 53.7083 37.4824 53.7083C34.8608 53.7083 33.5145 54.7003 32.31 55.5505C31.2472 56.33 30.3261 56.9677 28.413 56.9677C26.4999 56.9677 25.5788 56.33 24.5159 55.5505C23.3114 54.7003 21.9651 53.7083 19.3435 53.7083C16.7219 53.7083 15.3756 54.7003 14.1711 55.5505C13.1082 56.33 12.1871 56.9677 10.274 56.9677C8.36093 56.9677 7.43981 56.33 6.37699 55.5505C5.17245 54.7003 3.8262 53.7083 1.20455 53.7083C0.63771 53.7083 0.141724 54.2043 0.141724 54.7711C0.141724 55.338 0.63771 55.834 1.20455 55.834Z" fill="#233362"/>
<path d="M55.4797 61.9274C52.858 61.9274 51.5118 62.9194 50.3072 63.7697C49.2444 64.5491 48.3233 65.1868 46.4102 65.1868C44.4971 65.1868 43.576 64.5491 42.5131 63.7697C41.3086 62.9194 39.9624 61.9274 37.3407 61.9274C34.7191 61.9274 33.3728 62.9194 32.1683 63.7697C31.1055 64.5491 30.1843 65.1868 28.2712 65.1868C26.3582 65.1868 25.437 64.5491 24.3742 63.7697C23.1697 62.9194 21.8234 61.9274 19.2018 61.9274C16.5801 61.9274 15.2339 62.9194 14.0293 63.7697C12.9665 64.5491 12.0454 65.1868 10.1323 65.1868C8.21921 65.1868 7.29809 64.5491 6.23526 63.7697C5.03072 62.9194 3.68447 61.9274 1.06283 61.9274C0.495987 61.9274 0 62.4234 0 62.9903C0 63.5571 0.495987 64.0531 1.06283 64.0531C2.97592 64.0531 3.89704 64.6908 4.95987 65.4702C6.16441 66.3205 7.51066 67.3124 10.1323 67.3124C12.7539 67.3124 14.1002 66.3205 15.3047 65.4702C16.3676 64.6908 17.2887 64.0531 19.2018 64.0531C21.1149 64.0531 22.036 64.6908 23.0988 65.4702C24.3033 66.3205 25.6496 67.3124 28.2712 67.3124C30.8929 67.3124 32.2391 66.3205 33.4437 65.4702C34.5065 64.6908 35.4276 64.0531 37.3407 64.0531C39.2538 64.0531 40.1749 64.6908 41.2378 65.4702C42.4423 66.3205 43.7885 67.3124 46.4102 67.3124C49.0318 67.3124 50.3781 66.3205 51.5826 65.4702C52.6455 64.6908 53.5666 64.0531 55.4797 64.0531C56.0465 64.0531 56.5425 63.5571 56.5425 62.9903C56.5425 62.4234 56.0465 61.9274 55.4797 61.9274Z" fill="#233362"/>
</svg>
